<?xml version="1.0" encoding="utf-8"?>
<!-- Generator: Adobe Illustrator 17.0.0, SVG Export Plug-In . SVG Version: 6.00 Build 0)  -->
<!DOCTYPE svg PUBLIC "-//W3C//DTD SVG 1.1//EN" "http://www.w3.org/Graphics/SVG/1.1/DTD/svg11.dtd">
<svg version="1.1" id="图层_1" xmlns="http://www.w3.org/2000/svg" xmlns:xlink="http://www.w3.org/1999/xlink" x="0px" y="0px"
	 width="40px" height="40px" viewBox="0 0 40 40" enable-background="new 0 0 40 40" xml:space="preserve">
<g>
	<g>
		<path fill="#4E92CF" d="M14.26,7.366c1.799-1.968,3.096-4.398,3.665-7.008c0.321,1.068,0.404,2.187,0.509,3.291
			c-0.003,1.083,0.157,2.161,0.103,3.245c-0.021,1.044-0.257,2.069-0.563,3.063c-0.194,0.613-0.58,1.138-0.916,1.68
			c-0.641,0.983-1.082,2.082-1.435,3.197c-0.424,1.375-0.62,2.867-0.246,4.277c0.422,1.738,1.635,3.153,2.959,4.296
			c1.087,0.93,2.307,1.683,3.5,2.465c1.305,0.902,2.485,2.081,3.103,3.566c0.608,1.433,0.566,3.071,0.148,4.55
			c-0.121,0.462-0.329,0.895-0.454,1.356c0.826-0.657,1.35-1.633,1.629-2.638c0.29-1.164,0.228-2.402-0.117-3.547
			c-0.353-1.261-1.245-2.287-2.216-3.128c-0.702-0.595-1.432-1.158-2.142-1.745c-0.649-0.546-1.404-0.946-2.052-1.494
			c-1.099-0.888-2.093-2.004-2.48-3.393c-0.435-1.4-0.241-2.917,0.267-4.27c0.256-0.638,0.527-1.279,0.941-1.832
			c0.584-0.797,1.124-1.633,1.525-2.538c0.711-1.623,1.411-3.269,1.788-5.007c0.14-0.604,0.17-1.253,0.497-1.795
			c0.286,1.112,0.402,2.259,0.471,3.402c0.054,0.938,0.036,1.885-0.128,2.812c-0.088,0.514-0.323,0.986-0.57,1.439
			c-0.711,1.28-1.567,2.487-2.095,3.86c-0.324,0.821-0.5,1.728-0.333,2.606c0.29,1.318,1.09,2.465,2.035,3.406
			c0.695,0.637,1.425,1.238,2.194,1.784c0.454,0.319,0.92,0.626,1.311,1.024c0.505,0.508,1.044,0.993,1.455,1.584
			c0.602,0.823,0.926,1.815,1.135,2.804c0.172,0.804,0.158,1.629,0.143,2.447c-0.062,1.699-0.841,3.317-1.999,4.541
			c-0.264,0.283-0.549,0.542-0.817,0.82c1.305-0.639,2.335-1.756,3.042-3.013c0.713-1.229,0.955-2.675,0.961-4.08
			c0.016-1.729-0.743-3.383-1.823-4.701c-1.175-1.337-2.605-2.408-3.92-3.597c-0.713-0.683-1.469-1.408-1.774-2.376
			c-0.323-1.105-0.041-2.281,0.404-3.31c0.715-1.731,1.922-3.197,2.726-4.883c0.346-0.65,0.543-1.365,0.691-2.082
			c0.205-0.831,0.499-1.648,0.933-2.389c-0.03,1.16,0.126,2.311,0.232,3.464c0.067,0.676,0.015,1.367-0.171,2.022
			c-0.26,0.844-0.713,1.61-1.178,2.354c-0.344,0.555-0.738,1.086-0.975,1.699c-0.302,0.757-0.527,1.589-0.378,2.407
			c0.322,1.093,1.154,1.943,2.035,2.623c1.198,0.828,2.216,1.892,3.102,3.041c0.574,0.738,1.008,1.573,1.371,2.432
			c0.319,0.766,0.409,1.606,0.389,2.43c0.051,1.673-0.276,3.376-1.056,4.866c-0.295,0.605-0.604,1.218-1.076,1.708
			c-1.09,1.126-2.33,2.119-3.718,2.852c-1.633,0.849-3.435,1.391-5.274,1.512c-1.162,0.02-2.352,0.082-3.477-0.261
			c-1.438-0.371-2.768-1.214-3.641-2.425c-0.484-0.658-0.839-1.402-1.102-2.173c-0.146-0.428-0.106-0.885-0.113-1.328
			c-0.035-1.329,0.488-2.676,1.454-3.597c0.743-0.747,1.74-1.186,2.755-1.419c-0.465-0.263-0.956-0.481-1.394-0.788
			c-1.665-1.14-3.072-2.669-4.01-4.46c-0.994-2.196-1.428-4.693-0.963-7.077c0.478-2.562,1.874-4.846,3.537-6.811
			C13.171,8.524,13.713,7.942,14.26,7.366z M17.322,29.133c-0.864,0.175-1.648,0.733-2.075,1.507
			c-0.395,0.689-0.466,1.533-0.283,2.296c0.394,1.555,2.17,2.632,3.723,2.156c1.338-0.318,2.343-1.648,2.284-3.021
			c-0.001-1.186-0.78-2.322-1.881-2.759C18.535,29.076,17.912,29.028,17.322,29.133z"/>
	</g>
</g>
</svg>
