<?xml version="1.0" encoding="utf-8"?>
<!-- Generator: Adobe Illustrator 17.0.0, SVG Export Plug-In . SVG Version: 6.00 Build 0)  -->
<!DOCTYPE svg PUBLIC "-//W3C//DTD SVG 1.1//EN" "http://www.w3.org/Graphics/SVG/1.1/DTD/svg11.dtd">
<svg version="1.1" id="图层_1" xmlns="http://www.w3.org/2000/svg" xmlns:xlink="http://www.w3.org/1999/xlink" x="0px" y="0px"
	 width="200px" height="200px" viewBox="0 0 200 200" enable-background="new 0 0 200 200" xml:space="preserve">
<path d="M135.76,56.471c0-8.15-1.365-14.502-4.998-18.123c-3.615-4.066-9.51-6.791-17.215-6.791h-14.49v49.389h13.588
	c7.699,0,14.051-2.268,17.678-6.791C133.943,70.521,135.76,64.176,135.76,56.471z"/>
<path d="M114.01,180.619H30.18c-7.699,0-14.502-5.889-14.502-13.588v-66.152h135.932c4.523,0,9.059,0.445,9.059,0.908V31.105
	c0-12.697-9.51-22.658-21.75-22.658H30.18c-12.68,0-23.561,10.418-23.561,22.658v135.92c0,12.691,10.881,22.652,23.561,22.652
	h93.797C120.344,187.422,117.174,184.252,114.01,180.619L114.01,180.619z M91.803,25.217h22.658c9.516,0,17.221,3.164,22.189,9.064
	c4.09,5.432,6.803,12.674,6.803,22.195c0,9.516-2.713,17.221-7.693,22.664c-5.443,5.883-12.686,9.059-22.652,9.059H91.352V25.217
	C91.352,25.217,91.803,25.217,91.803,25.217z M48.754,25.217h7.248l24.92,62.525h-7.699L66.42,69.613H38.336l-6.797,18.129h-7.705
	C23.834,87.742,48.754,25.217,48.754,25.217z"/>
<path d="M52.838,34.727L41.049,63.725h22.664L52.838,34.727z M100.41,124.891H27.912c-2.503,0.09-4.459,2.192-4.369,4.695
	c0.086,2.377,1.992,4.284,4.369,4.369h72.498c2.262,0,4.535-2.262,4.535-4.529C104.945,127.152,102.672,124.891,100.41,124.891z
	 M100.41,151.17H27.912c-2.499,0.006-4.523,2.031-4.529,4.529c0,2.725,1.811,4.529,4.529,4.529h72.498
	c2.5-0.006,4.525-2.03,4.535-4.529C104.945,153.443,102.672,151.17,100.41,151.17z M193.299,144.373l-2.279-11.326
	c-0.902-3.182-4.072-5.9-7.236-6.34l-4.529-0.463c-0.451,0-0.451,0-0.896-0.445v-1.816l0.445-4.535
	c0.451-3.621-1.354-7.242-4.535-8.607l-10.418-4.98h-0.445c-0.908-0.451-1.816-0.451-2.725-0.451c-2.262,0-4.529,0.902-5.889,2.262
	l-3.17,3.17l-0.902,0.902c-0.457,0-0.457-0.439-0.908-0.902l-3.182-3.17c-1.354-1.354-3.615-2.262-5.877-2.262
	c-1.822,0-3.182,0.451-3.627,0.902l-10.418,4.992c-2.719,1.811-4.992,4.98-4.529,8.145l0.445,4.992v0.908
	c0,0-0.902,0.451-1.354,0.451l-4.078,0.445c-3.164,0.463-6.346,2.725-7.248,6.352l-2.262,11.338
	c-0.908,3.158,0.451,6.779,3.621,9.053l3.627,2.273l1.359,1.354c0,0.451,0,0.451-0.463,0.902l-2.707,4.078
	c-1.822,2.707-1.822,6.791,0.439,9.51l7.26,9.51c1.805,1.816,4.078,3.182,6.34,3.182c0.902,0,1.811,0,2.719-0.457l4.523-1.359h1.365
	c0,0.451,0.445,0.451,0.445,0.908l1.354,4.072c0.902,3.627,4.529,5.443,7.699,5.443h11.338c3.176,0,6.334-2.273,7.242-5.443
	l1.359-4.072c0-0.457,0.451-0.457,0.451-0.908h1.359l3.627,1.359c0.896,0.457,2.262,0.457,2.719,0.457
	c2.719,0,5.438-1.365,6.785-3.182l7.254-9.047c1.811-2.273,2.268-6.363,0.451-9.516l-2.268-3.627c0-0.451-0.445-0.908-0.445-1.359
	l0.908-0.908l4.061-2.273C192.385,151.17,193.75,147.092,193.299,144.373z M185.588,145.744l-4.072,2.713
	c-0.902,0.908-3.627,3.17-4.072,5.432c-0.457,2.273,0.445,5.443,1.811,6.803l2.713,4.078l-6.779,9.521h-0.469l-4.523-1.377
	c-3.17-0.891-6.346,0-7.254,0.469c-1.811,0.908-3.621,3.621-4.518,5.432l-1.359,4.078l-0.451,0.451H144.83l-1.816-3.621
	c-0.445-2.262-2.262-4.992-4.078-5.889c-1.359-0.92-3.164-0.92-3.627-0.92c-1.348,0-2.713,0.469-4.529,0.92l-4.066,1.365h-0.914
	l-6.791-9.082v-0.908l2.268-3.609c1.354-1.822,2.268-4.529,1.822-7.26c-0.463-2.713-3.176-4.975-4.535-5.883l-4.072-2.273
	c0,0-0.451-0.439,0-0.439l2.713-11.783l4.078-0.457c2.268,0,5.443-1.359,6.797-3.17c1.354-1.805,2.268-4.529,1.816-6.803
	l-0.457-4.518c0-0.463,0.457-0.908,0.457-0.908l9.967-4.529h0.908l3.17,3.17c1.816,1.359,4.072,2.713,6.34,2.713
	c2.273,0,5.438-1.348,6.346-3.164l3.176-3.17h0.445l10.424,4.529l0.445,0.451l-0.445,4.518c0,0.908,0,4.529,1.811,6.809
	c0.908,1.359,3.176,2.713,6.346,3.17l4.072,0.451l0.457,0.451l2.262,10.869v1.371H185.588L185.588,145.744z"/>
<path d="M150.707,128.061c-11.332,0-20.848,9.51-20.848,20.854c0,11.326,9.516,20.848,20.848,20.848
	c10.869,0,20.385-9.521,20.836-20.848C171.543,137.57,162.033,128.061,150.707,128.061z M150.707,161.6
	c-7.254,0-13.148-5.895-13.148-13.143c0-7.248,5.895-13.131,13.148-13.131c6.779,0,12.686,5.883,13.131,13.131
	C163.393,156.156,157.492,161.6,150.707,161.6z"/>
</svg>
