<?xml version="1.0" encoding="utf-8"?>
<!-- Generator: Adobe Illustrator 17.0.0, SVG Export Plug-In . SVG Version: 6.00 Build 0)  -->
<!DOCTYPE svg PUBLIC "-//W3C//DTD SVG 1.1//EN" "http://www.w3.org/Graphics/SVG/1.1/DTD/svg11.dtd">
<svg version="1.1" id="图层_1" xmlns="http://www.w3.org/2000/svg" xmlns:xlink="http://www.w3.org/1999/xlink" x="0px" y="0px"
	 width="200px" height="200px" viewBox="0 0 200 200" enable-background="new 0 0 200 200" xml:space="preserve">
<path d="M172.55,83.208V47.687c0-16.659-13.501-30.161-30.161-30.161h-3.256v-7.214c0-4.158-3.372-7.53-7.543-7.53
	c-4.159,0-7.53,3.371-7.53,7.53v7.214H53.689v-7.214c0-4.158-3.385-7.53-7.543-7.53c-4.172,0-7.543,3.372-7.543,7.53v7.214H31.81
	c-16.66,0-30.161,13.502-30.161,30.161v115.604c0,16.659,13.501,30.16,30.161,30.16h57.369c3.979,1.22,8.194-1.017,9.414-4.996
	c0.22-0.719,0.332-1.466,0.331-2.218c0-3.721-2.702-6.815-6.259-7.426c-0.085-0.046-0.173-0.085-0.264-0.117
	c-2.291-0.746-60.59-0.329-60.59-0.329c-8.316,0-15.073-6.758-15.073-15.074v-80.09h150.039 M31.81,32.599h6.793v12.897
	c-0.004,4.162,3.367,7.539,7.529,7.543c0.005,0,0.009,0,0.014,0c4.165-0.001,7.542-3.378,7.543-7.543V32.599h70.371v12.897
	c0,4.172,3.372,7.543,7.53,7.543c4.162,0.004,7.539-3.367,7.543-7.529c0-0.005,0-0.009,0-0.014V32.599h3.256
	c8.316,0,15.087,6.771,15.087,15.087v20.427H16.736V47.687C16.736,39.371,23.494,32.599,31.81,32.599z"/>
<path d="M149.182,93.25c-27.761,0-50.259,22.51-50.259,50.259c0,27.761,22.497,50.272,50.259,50.272
	c27.761,0,50.272-22.51,50.272-50.272C199.454,115.76,176.944,93.25,149.182,93.25z M149.182,178.693
	c-19.391,0-35.185-15.78-35.185-35.185c0-19.393,15.793-35.172,35.185-35.172c19.405,0,35.185,15.779,35.185,35.172
	C184.367,162.913,168.588,178.693,149.182,178.693z"/>
<path d="M164.269,148.546h-15.087V133.46c-0.002-2.774-2.25-5.023-5.024-5.026c-2.774,0.003-5.023,2.252-5.025,5.026v20.111
	c0.002,2.775,2.25,5.023,5.025,5.025h20.111c2.774-0.002,5.023-2.251,5.025-5.025C169.292,150.797,167.043,148.548,164.269,148.546
	L164.269,148.546z M68.763,103.299h-30.16c-2.779,0-5.031,2.252-5.031,5.031s2.252,5.031,5.031,5.031l0,0h30.161
	c2.774-0.002,5.022-2.251,5.024-5.025C73.791,105.557,71.542,103.302,68.763,103.299C68.763,103.299,68.763,103.299,68.763,103.299z
	 M68.763,138.483h-30.16c-2.779,0.004-5.029,2.26-5.025,5.039v0c0.002,2.774,2.251,5.022,5.025,5.024h30.161
	c2.774-0.002,5.022-2.25,5.024-5.024C73.792,140.743,71.542,138.487,68.763,138.483C68.763,138.483,68.763,138.483,68.763,138.483z"
	/>
</svg>
