<?xml version="1.0" standalone="no"?><!DOCTYPE svg PUBLIC "-//W3C//DTD SVG 1.1//EN" "http://www.w3.org/Graphics/SVG/1.1/DTD/svg11.dtd"><svg t="1692940017996" class="icon" viewBox="0 0 1024 1024" version="1.1" xmlns="http://www.w3.org/2000/svg" p-id="39833" xmlns:xlink="http://www.w3.org/1999/xlink" width="200" height="200"><path d="M764 188H260a127.14 127.14 0 0 0-127 127v294.34a127.14 127.14 0 0 0 127 127h504a127.14 127.14 0 0 0 127-127V315a127.14 127.14 0 0 0-127-127z m73 421.34a73.08 73.08 0 0 1-73 73H260a73.08 73.08 0 0 1-73-73V315a73.08 73.08 0 0 1 73-73h504a73.08 73.08 0 0 1 73 73z" p-id="39834"></path><path d="M408.86 339.61a27 27 0 0 0-49.09 0l-102 222.63a27 27 0 1 0 49.09 22.49l18.71-40.85H441.2c0.61 0 1.21 0 1.81-0.07l18.75 40.92a27 27 0 1 0 49.09-22.49z m-58.54 150.27l34-74.19 34 74.19zM630.36 323.86h-58.73a27 27 0 0 0-27 27v222.62a27 27 0 0 0 27 27h58.73c76.27 0 138.31-62 138.31-138.31s-62.04-138.31-138.31-138.31z m0 222.63h-31.73V377.86h31.73a84.31 84.31 0 1 1 0 168.63zM817 782H207a27 27 0 1 0 0 54h610a27 27 0 0 0 0-54z" p-id="39835"></path></svg>