<?xml version="1.0" encoding="utf-8"?>
<!-- Generator: Adobe Illustrator 17.0.0, SVG Export Plug-In . SVG Version: 6.00 Build 0)  -->
<!DOCTYPE svg PUBLIC "-//W3C//DTD SVG 1.1//EN" "http://www.w3.org/Graphics/SVG/1.1/DTD/svg11.dtd">
<svg version="1.1" id="图层_1" xmlns="http://www.w3.org/2000/svg" xmlns:xlink="http://www.w3.org/1999/xlink" x="0px" y="0px"
	 width="200px" height="200px" viewBox="0 0 200 200" enable-background="new 0 0 200 200" xml:space="preserve">
<path d="M94.444,2.094c5.018-2.774,11.11-2.774,16.128,0l74.6,41.222c5.312,2.933,8.61,8.521,8.611,14.589v81.839
	c-0.003,6.066-3.301,11.651-8.611,14.583l-74.6,41.233c-5.017,2.772-11.106,2.772-16.122,0l-74.6-41.222
	c-5.314-2.934-8.613-8.525-8.611-14.594V57.911c0.005-6.064,3.303-11.647,8.611-14.578L94.444,2.089
	C94.444,2.089,94.444,2.094,94.444,2.094z M177.111,57.911l-74.606-41.222l-74.6,41.222v81.833l74.6,41.222l74.611-41.222V57.911
	L177.111,57.911z M43.389,66.156c2.225-4.028,7.294-5.491,11.322-3.267l47.8,26.417l47.811-26.417
	c4.089-2.113,9.116-0.512,11.229,3.577c2.031,3.93,0.638,8.761-3.174,11.006l-47.533,26.278v52.372c0,4.602-3.731,8.333-8.333,8.333
	s-8.333-3.731-8.333-8.333v-52.378L46.644,77.478c-4.028-2.227-5.487-7.298-3.26-11.325c0.001-0.003,0.003-0.005,0.004-0.008V66.156
	L43.389,66.156z"/>
</svg>
