<?xml version="1.0" encoding="utf-8"?>
<!-- Generator: Adobe Illustrator 17.0.0, SVG Export Plug-In . SVG Version: 6.00 Build 0)  -->
<!DOCTYPE svg PUBLIC "-//W3C//DTD SVG 1.1//EN" "http://www.w3.org/Graphics/SVG/1.1/DTD/svg11.dtd">
<svg version="1.1" id="图层_1" xmlns="http://www.w3.org/2000/svg" xmlns:xlink="http://www.w3.org/1999/xlink" x="0px" y="0px"
	 width="236.523px" height="200px" viewBox="0 0 236.523 200" enable-background="new 0 0 236.523 200" xml:space="preserve">
<path d="M193.408,185.355H39.188c-13.839,0-25.106-10.526-25.106-23.462V73.077c0-12.936,11.267-23.462,25.106-23.462h154.221
	c13.847,0,25.106,10.526,25.106,23.462v88.816C218.514,174.829,207.256,185.355,193.408,185.355z M204.173,73.077
	c0-5.544-4.829-10.049-10.765-10.049H39.188c-5.927,0-10.756,4.505-10.756,10.049v88.816c0,5.544,4.829,10.058,10.756,10.058
	h154.221c5.936,0,10.765-4.514,10.765-10.058V73.077z M149.678,111.851h-27.763v11.574h27.763c3.1,0,5.621,2.35,5.621,5.255
	c0,2.904-2.521,5.246-5.621,5.246h-27.763v24.757c0,2.896-2.512,5.246-5.612,5.246c-3.108,0-5.621-2.35-5.621-5.246v-24.757H82.919
	c-3.108,0-5.621-2.342-5.621-5.246s2.512-5.255,5.621-5.255h27.763v-11.574H82.919c-3.108,0-5.621-2.359-5.621-5.255
	s2.512-5.255,5.621-5.255h21.64L83.106,81.295c-2.051-1.87-2.197-5.048-0.328-7.098c0.104-0.114,0.214-0.224,0.328-0.328
	c2.255-2.051,5.699-2.051,7.954,0l25.549,23.871l25.532-23.871c2.255-2.051,5.699-2.051,7.954,0
	c2.051,1.856,2.209,5.022,0.353,7.073c-0.112,0.124-0.23,0.241-0.353,0.353l-21.444,20.047h21.027c3.1,0,5.621,2.359,5.621,5.255
	S152.777,111.851,149.678,111.851L149.678,111.851z M192.736,41.294H39.861c-3.96,0-7.171-3.006-7.171-6.702
	c0-3.705,3.211-6.702,7.171-6.702h152.875c3.96,0,7.179,2.998,7.179,6.702C199.915,38.288,196.696,41.294,192.736,41.294
	L192.736,41.294z M173.685,19.791H58.92c-3.969,0-7.179-3.006-7.179-6.702c0-3.705,3.219-6.702,7.179-6.702h114.765
	c3.96,0,7.179,2.998,7.179,6.702C180.864,16.785,177.645,19.791,173.685,19.791L173.685,19.791z"/>
</svg>
