<?xml version="1.0" encoding="utf-8"?>
<!-- Generator: Adobe Illustrator 17.0.0, SVG Export Plug-In . SVG Version: 6.00 Build 0)  -->
<!DOCTYPE svg PUBLIC "-//W3C//DTD SVG 1.1//EN" "http://www.w3.org/Graphics/SVG/1.1/DTD/svg11.dtd">
<svg version="1.1" id="图层_1" xmlns="http://www.w3.org/2000/svg" xmlns:xlink="http://www.w3.org/1999/xlink" x="0px" y="0px"
	 width="200px" height="200px" viewBox="0 0 200 200" enable-background="new 0 0 200 200" xml:space="preserve">
<path d="M66.018,37.275l16.081-24.996c1.71-2.565,1.017-6.031-1.548-7.741c-1.487-0.991-3.358-1.211-5.034-0.591L43.355,17.361
	c-4.177,1.861-7.255,5.554-8.332,9.998L0.528,158.34c-2.141,7.861,2.422,15.985,10.248,18.247L96.346,200l2.5-8.915
	c0.815-2.718,0.815-5.615,0-8.332L64.018,49.44C62.943,45.284,63.669,40.868,66.018,37.275z"/>
<path d="M199.497,160.506L165.169,28.943c-1.074-4.094-3.828-7.544-7.582-9.499L122.342,1.531
	c-6.488-3.286-14.41-1.126-18.331,4.999L81.599,40.275c-2.344,3.626-3.068,8.065-2,12.248l34.328,131.563
	c1.903,7.778,9.75,12.54,17.528,10.637c0.073-0.018,0.147-0.036,0.22-0.056l57.574-15.831
	C197.087,176.537,201.643,168.388,199.497,160.506L199.497,160.506z M107.845,39.858c0-8.145,6.603-14.748,14.748-14.748
	s14.748,6.603,14.748,14.748s-6.603,14.748-14.748,14.748S107.845,48.003,107.845,39.858L107.845,39.858z M184.749,123.178v15.998
	h-9.165c0,0-0.667,2.083-1.083,3.166c-0.319,0.864-0.709,1.7-1.166,2.5l6.166,6.332l-10.832,11.165l-6.082-6.332l-2.5,1.166
	l-3.166,1.166v8.915h-15.914v-8.082l-3.333-0.833l-2.416-1.166l-6.166,6.332l-10.832-11.165l6.166-6.332
	c-0.417-0.833-0.833-1.666-1.166-2.5c-0.417-1.083-0.75-2.083-1.083-3.166h-8.332v-16.914h8.332c0.586-2.173,1.425-4.271,2.5-6.249
	l-6.166-6.332l10.332-10.832l6.166,6.332c1.906-1.064,3.916-1.93,5.999-2.583v-9.332h15.248v8.999
	c2.104,0.668,4.141,1.532,6.082,2.583l6.082-6.332l10.832,11.165l-6.166,6.332c1.074,1.978,1.913,4.076,2.5,6.249L184.749,123.178z"
	/>
<path d="M166.669,129.677v-1.833v-1.416v-0.417c0.048-0.443,0.048-0.89,0-1.333c-3.372-9.203-13.566-13.931-22.769-10.559
	c-4.901,1.796-8.763,5.658-10.559,10.559c-0.188,0.427-0.328,0.875-0.417,1.333v2.25c-0.04,0.471-0.04,0.945,0,1.416v3.083
	c-0.04,0.248-0.04,0.502,0,0.75c-0.04,0.332-0.04,0.668,0,1v0.833c1.503,6.499,6.417,11.668,12.831,13.498
	c3.021,0.873,6.227,0.873,9.249,0c6.414-1.83,11.329-6.999,12.831-13.498c0.032-0.277,0.032-0.556,0-0.833
	c0.04-0.332,0.04-0.668,0-1c-0.368-0.154-0.77-0.212-1.166-0.167c0.041-0.388,0.041-0.779,0-1.166v-2.333V129.677z"/>
</svg>
