<?xml version="1.0" standalone="no"?><!DOCTYPE svg PUBLIC "-//W3C//DTD SVG 1.1//EN" "http://www.w3.org/Graphics/SVG/1.1/DTD/svg11.dtd"><svg t="1701309527974" class="icon" viewBox="0 0 1024 1024" version="1.1" xmlns="http://www.w3.org/2000/svg" p-id="11668" xmlns:xlink="http://www.w3.org/1999/xlink" width="200" height="200"><path d="M32 0v1024" fill="#000000" opacity=".3" p-id="11669"></path><path d="M64 0v1024" fill="#000000" p-id="11670"></path><path d="M96 0v1024" fill="#000000" opacity=".3" p-id="11671"></path><path d="M128 0v1024" fill="#000000" p-id="11672"></path><path d="M160 0v1024" fill="#000000" opacity=".3" p-id="11673"></path><path d="M192 0v1024" fill="#000000" p-id="11674"></path><path d="M224 0v1024" fill="#000000" opacity=".3" p-id="11675"></path><path d="M256 0v1024" fill="#000000" p-id="11676"></path><path d="M288 0v1024" fill="#000000" opacity=".3" p-id="11677"></path><path d="M320 0v1024" fill="#000000" p-id="11678"></path><path d="M352 0v1024" fill="#000000" opacity=".3" p-id="11679"></path><path d="M384 0v1024" fill="#000000" p-id="11680"></path><path d="M416 0v1024" fill="#000000" opacity=".3" p-id="11681"></path><path d="M448 0v1024" fill="#000000" p-id="11682"></path><path d="M480 0v1024" fill="#000000" opacity=".3" p-id="11683"></path><path d="M512 0v1024" fill="#000000" p-id="11684"></path><path d="M544 0v1024" fill="#000000" opacity=".3" p-id="11685"></path><path d="M576 0v1024" fill="#000000" p-id="11686"></path><path d="M608 0v1024" fill="#000000" opacity=".3" p-id="11687"></path><path d="M640 0v1024" fill="#000000" p-id="11688"></path><path d="M672 0v1024" fill="#000000" opacity=".3" p-id="11689"></path><path d="M704 0v1024" fill="#000000" p-id="11690"></path><path d="M736 0v1024" fill="#000000" opacity=".3" p-id="11691"></path><path d="M768 0v1024" fill="#000000" p-id="11692"></path><path d="M800 0v1024" fill="#000000" opacity=".3" p-id="11693"></path><path d="M832 0v1024" fill="#000000" p-id="11694"></path><path d="M864 0v1024" fill="#000000" opacity=".3" p-id="11695"></path><path d="M896 0v1024" fill="#000000" p-id="11696"></path><path d="M928 0v1024" fill="#000000" opacity=".3" p-id="11697"></path><path d="M960 0v1024" fill="#000000" p-id="11698"></path><path d="M992 0v1024M0 32h1024" fill="#000000" opacity=".3" p-id="11699"></path><path d="M0 64h1024" fill="#000000" p-id="11700"></path><path d="M0 96h1024" fill="#000000" opacity=".3" p-id="11701"></path><path d="M0 128h1024" fill="#000000" p-id="11702"></path><path d="M0 160h1024" fill="#000000" opacity=".3" p-id="11703"></path><path d="M0 192h1024" fill="#000000" p-id="11704"></path><path d="M0 224h1024" fill="#000000" opacity=".3" p-id="11705"></path><path d="M0 256h1024" fill="#000000" p-id="11706"></path><path d="M0 288h1024" fill="#000000" opacity=".3" p-id="11707"></path><path d="M0 320h1024" fill="#000000" p-id="11708"></path><path d="M0 352h1024" fill="#000000" opacity=".3" p-id="11709"></path><path d="M0 384h1024" fill="#000000" p-id="11710"></path><path d="M0 416h1024" fill="#000000" opacity=".3" p-id="11711"></path><path d="M0 448h1024" fill="#000000" p-id="11712"></path><path d="M0 480h1024" fill="#000000" opacity=".3" p-id="11713"></path><path d="M0 512h1024" fill="#000000" p-id="11714"></path><path d="M0 544h1024" fill="#000000" opacity=".3" p-id="11715"></path><path d="M0 576h1024" fill="#000000" p-id="11716"></path><path d="M0 608h1024" fill="#000000" opacity=".3" p-id="11717"></path><path d="M0 640h1024" fill="#000000" p-id="11718"></path><path d="M0 672h1024" fill="#000000" opacity=".3" p-id="11719"></path><path d="M0 704h1024" fill="#000000" p-id="11720"></path><path d="M0 736h1024" fill="#000000" opacity=".3" p-id="11721"></path><path d="M0 768h1024" fill="#000000" p-id="11722"></path><path d="M0 800h1024" fill="#000000" opacity=".3" p-id="11723"></path><path d="M0 832h1024" fill="#000000" p-id="11724"></path><path d="M0 864h1024" fill="#000000" opacity=".3" p-id="11725"></path><path d="M0 896h1024" fill="#000000" p-id="11726"></path><path d="M0 928h1024" fill="#000000" opacity=".3" p-id="11727"></path><path d="M0 960h1024" fill="#000000" p-id="11728"></path><path d="M0 992h1024" fill="#000000" opacity=".3" p-id="11729"></path><path d="M150.666 930.666c-16 0-26.666-5.332-37.332-16C92 893.334 92 861.334 113.334 840L860 93.334c21.334-21.334 53.334-21.334 74.666 0C956 114.666 956 146.666 934.666 168L188 914.666c-10.666 10.668-21.334 16-37.334 16z m96-493.332C145.334 437.334 60 352 60 250.666 60 149.334 145.334 64 246.666 64c101.334 0 186.668 85.334 186.668 186.666 0 101.334-85.334 186.668-186.668 186.668z m0-266.668c-42.666 0-80 37.334-80 80 0 42.668 37.334 80 80 80 42.668 0 80-37.332 80-80 0-42.666-37.332-80-80-80zM779.334 960c-101.334 0-186.668-85.334-186.668-186.666 0-101.334 85.334-186.668 186.668-186.668C880.666 586.666 966 672 966 773.334 966 874.666 880.666 960 779.334 960z m0-266.666c-42.668 0-80 37.332-80 80 0 42.666 37.332 80 80 80 42.666 0 80-37.334 80-80 0-42.668-37.334-80-80-80z" fill="#000000" p-id="11730"></path></svg>