<?xml version="1.0" encoding="utf-8"?>
<!-- Generator: Adobe Illustrator 17.0.0, SVG Export Plug-In . SVG Version: 6.00 Build 0)  -->
<!DOCTYPE svg PUBLIC "-//W3C//DTD SVG 1.1//EN" "http://www.w3.org/Graphics/SVG/1.1/DTD/svg11.dtd">
<svg version="1.1" id="图层_1" xmlns="http://www.w3.org/2000/svg" xmlns:xlink="http://www.w3.org/1999/xlink" x="0px" y="0px"
	 width="200px" height="200px" viewBox="0 0 200 200" enable-background="new 0 0 200 200" xml:space="preserve">
<path d="M75,175H31.25c-10.332,0-18.75-8.418-18.75-18.75v-125c0-10.332,8.418-18.75,18.75-18.75h100
	c10.332,0,18.75,8.418,18.75,18.75v37.5c0,3.457-2.793,6.25-6.25,6.25s-6.25-2.793-6.25-6.25v-37.5c0-3.438-2.813-6.25-6.25-6.25
	h-100C27.812,25,25,27.812,25,31.25v125c0,3.438,2.812,6.25,6.25,6.25H75c3.457,0,6.25,2.793,6.25,6.25S78.457,175,75,175z"/>
<path d="M134.375,187.5c-14.199,0-27.539-5.527-37.559-15.566c-10.039-10.02-15.566-23.359-15.566-37.559
	s5.527-27.539,15.566-37.559c10.02-10.039,23.359-15.566,37.559-15.566s27.539,5.527,37.559,15.566s15.566,23.379,15.566,37.559
	c0,14.199-5.527,27.539-15.566,37.559S148.574,187.5,134.375,187.5z M134.375,93.75c-22.402,0-40.625,18.223-40.625,40.625
	S111.973,175,134.375,175S175,156.777,175,134.375S156.777,93.75,134.375,93.75z"/>
<path d="M118.75,62.5h-75c-3.457,0-6.25-2.793-6.25-6.25S40.293,50,43.75,50h75c3.457,0,6.25,2.793,6.25,6.25
	S122.207,62.5,118.75,62.5z"/>
<path d="M75,100H43.75c-3.457,0-6.25-2.793-6.25-6.25s2.793-6.25,6.25-6.25H75c3.457,0,6.25,2.793,6.25,6.25S78.457,100,75,100z"/>
<path d="M62.5,137.5H43.75c-3.457,0-6.25-2.793-6.25-6.25s2.793-6.25,6.25-6.25H62.5c3.457,0,6.25,2.793,6.25,6.25
	S65.957,137.5,62.5,137.5z"/>
<path d="M137.5,156.25c-1.23,0-2.441-0.352-3.477-1.055l-18.75-12.5c-2.871-1.914-3.652-5.801-1.738-8.672
	c1.914-2.871,5.801-3.652,8.672-1.738l13.301,8.867l15.371-25.625c1.777-2.969,5.625-3.926,8.574-2.148
	c2.969,1.777,3.926,5.605,2.148,8.574l-18.75,31.25c-0.879,1.465-2.324,2.5-3.984,2.891
	C138.418,156.211,137.949,156.25,137.5,156.25z"/>
</svg>
