<?xml version="1.0" encoding="utf-8"?>
<!-- Generator: Adobe Illustrator 17.0.0, SVG Export Plug-In . SVG Version: 6.00 Build 0)  -->
<!DOCTYPE svg PUBLIC "-//W3C//DTD SVG 1.1//EN" "http://www.w3.org/Graphics/SVG/1.1/DTD/svg11.dtd">
<svg version="1.1" id="图层_1" xmlns="http://www.w3.org/2000/svg" xmlns:xlink="http://www.w3.org/1999/xlink" x="0px" y="0px"
	 width="200px" height="200px" viewBox="0 0 200 200" enable-background="new 0 0 200 200" xml:space="preserve">
<path d="M136.984,133.717c4.607-3.22,9.919-5.336,15.466-6.135c0.165-0.024,0.306-0.141,0.353-0.306c0.047-0.165,0-0.329-0.118-0.47
	c-7.898-7.662-17.205-13.727-27.383-17.91c16.547-10.93,26.49-29.451,26.49-49.289c0.023-32.648-26.443-59.114-59.09-59.114
	S33.588,26.96,33.588,59.607c-0.024,19.838,9.942,38.359,26.49,49.289c-31.59,12.974-54.013,44.141-54.013,80.315v5.759
	c0,0.494,0.4,0.893,0.893,0.893h14.432c0.494,0,0.893-0.4,0.893-0.893v-5.759c-0.024-9.378,1.88-18.686,5.547-27.312
	c7.192-16.923,20.66-30.391,37.56-37.607c8.626-3.667,17.91-5.571,27.265-5.547c9.378-0.024,18.663,1.88,27.265,5.547
	c5.688,2.421,11.047,5.594,15.936,9.402C136.209,133.952,136.655,133.952,136.984,133.717L136.984,133.717z M92.702,102.48
	c-20.425-0.024-37.983-14.455-41.956-34.505c-3.972-20.026,6.769-40.075,25.62-47.902c18.874-7.804,40.639-1.199,51.969,15.795
	c11.353,16.994,9.12,39.605-5.336,54.06C114.984,97.99,104.078,102.503,92.702,102.48L92.702,102.48z"/>
<path d="M94.841,96.322c-10.883,0-20.802-5.97-25.432-15.348c-1.034-2.209-0.024-4.818,2.28-5.853s5.077-0.118,6.205,2.068
	c3.103,6.205,9.684,10.154,16.923,10.154c7.216,0,13.797-3.949,16.923-10.154c1.222-2.045,3.878-2.821,6.088-1.81
	c2.209,1.011,3.244,3.479,2.35,5.665C115.501,90.351,105.653,96.298,94.841,96.322z"/>
<path d="M198.778,130.021c-2.64-2.64-6.938-2.64-9.578,0l-44.267,44.267l-25.664-25.664c-2.64-2.64-6.938-2.64-9.578,0
	c-2.64,2.64-2.64,6.938,0,9.578l30.269,30.269c0.061,0.061,0.061,0.061,0.123,0.061c0,0.061,0.061,0.061,0.061,0.123
	c2.64,2.64,6.938,2.64,9.578,0l49.056-49.056C201.418,136.898,201.418,132.661,198.778,130.021L198.778,130.021z"/>
</svg>
