<?xml version="1.0" encoding="utf-8"?>
<!-- Generator: Adobe Illustrator 17.0.0, SVG Export Plug-In . SVG Version: 6.00 Build 0)  -->
<!DOCTYPE svg PUBLIC "-//W3C//DTD SVG 1.1//EN" "http://www.w3.org/Graphics/SVG/1.1/DTD/svg11.dtd">
<svg version="1.1" id="图层_1" xmlns="http://www.w3.org/2000/svg" xmlns:xlink="http://www.w3.org/1999/xlink" x="0px" y="0px"
	 width="200.781px" height="200px" viewBox="0 0 200.781 200" enable-background="new 0 0 200.781 200" xml:space="preserve">
<path d="M111.225,181.827H21.049c-4.446,0-8.063-3.615-8.063-8.059v-13.285c0-8.723,6.348-17.16,18.866-25.078
	c8.826-5.583,18.162-9.235,20.248-10.021c9.899-4.352,15.782-9.752,17.385-11.34c-4.178-6.506-7.197-16.871-8.895-23.847
	c-8.49-5.422-10.218-15.48-9.832-21.015c0.036-5.051,1.843-9.271,5.065-12.021c-1.493-16.125-0.816-34.136,13.075-40.243
	C72.026,9.256,80.376,4.762,91.789,4.762c7.828,0,12.508,1.459,16.269,2.632c1.97,0.614,3.472,1.083,5.222,1.306
	c3.812,0.483,7.242-1.011,7.484-1.119c2.502-1.218,5.402-1.071,7.773,0.398c2.377,1.462,3.809,4.015,3.817,6.821
	c0,0.901-0.1,3.522-1.126,6.643c5.746,7.171,6.04,17.319,5.638,35.396c3.499,2.768,5.468,7.208,5.511,12.619
	c0.349,5.103-1.357,15.325-9.899,20.765c-1.645,6.07-6.214,20.497-11.688,27.092l-1.712-1.421l-2.554,3.959
	c0.105,0.068,0.233,0.147,0.388,0.216l-0.1-0.042c-3.71-1.571-4.153-4.324-4.087-5.826l0.067-1.532l0.979-1.18
	c4.122-4.964,8.843-18.898,10.327-25.304l0.487-2.101l1.934-0.957c6.159-3.046,6.963-10.508,6.753-13.126l-0.015-0.365
	c0-3.198-0.987-5.278-2.934-6.184l-2.708-1.259l0.072-2.986c0.54-22.269-0.006-28.94-4.88-33.452l-2.53-2.342l1.564-3.073
	c0.721-1.416,1.068-2.833,1.236-3.878c-2.245,0.806-6.3,1.875-10.948,1.286c-2.551-0.325-4.576-0.957-6.721-1.625
	c-3.565-1.112-7.182-2.24-13.621-2.24c-8.091,0-13.632,2.854-14.822,7.633l-0.616,2.477l-2.434,0.77
	c-8.31,2.628-11.009,13.166-8.752,34.167l0.34,3.164l-2.852,1.411c-1.846,0.914-2.78,2.882-2.776,5.851l-0.015,0.368
	c-0.267,3.352,0.795,10.468,6.729,13.405l1.937,0.958l0.484,2.105c2.044,8.882,5.521,19.935,9.152,24.324l0.99,1.197l0.053,1.553
	c0.073,2.126-0.319,4.961-2.575,6.506c-0.848,0.918-7.927,8.303-20.988,14.017l-0.229,0.093
	c-11.521,4.312-33.31,15.421-33.31,26.604v12.225h89.119v9.116H111.225z"/>
<path d="M153.948,194.568h-17.655c-3.298,0-6.091-2.332-6.642-5.546l-0.017-0.103l-1.31-8.87c-1.354-0.65-2.691-1.409-4.024-2.284
	l-8.947,3.507c-0.712,0.233-1.457,0.351-2.206,0.352c-2.417,0-4.638-1.269-5.813-3.315l-8.861-14.942
	c-1.566-2.792-0.947-6.227,1.506-8.354l0.219-0.179l7.381-5.63c-0.039-0.706-0.059-1.418-0.059-2.146
	c0-0.729,0.02-1.441,0.059-2.146l-7.381-5.632c-2.638-2.057-3.348-5.631-1.727-8.528l0.057-0.098l8.928-15.043
	c1.273-1.953,3.421-3.118,5.743-3.118c0.775,0,1.537,0.13,2.265,0.388l0.145,0.054l8.716,3.426c1.244-0.794,2.578-1.54,3.993-2.231
	l1.335-9.035c0.542-3.161,3.396-5.546,6.642-5.546h17.655c3.357,0,6.214,2.508,6.584,5.743l1.296,8.775
	c1.354,0.65,2.69,1.409,4.024,2.285l8.952-3.509c0.711-0.231,1.454-0.349,2.201-0.35c2.417,0,4.637,1.268,5.813,3.314l8.866,14.947
	c1.56,2.792,0.938,6.225-1.511,8.348l-0.219,0.178l-7.304,5.573c0.048,0.695,0.07,1.425,0.07,2.205c0,0.758-0.037,1.477-0.095,2.17
	l7.633,5.782c2.455,2.126,3.075,5.562,1.508,8.355l-0.055,0.095l-8.928,15.044c-1.274,1.953-3.421,3.119-5.742,3.119h-0.001
	c-0.776,0-1.54-0.132-2.27-0.391l-0.126-0.048l-8.778-3.421c-1.212,0.786-2.528,1.528-3.943,2.222l-1.335,9.036
	C160.049,192.184,157.193,194.568,153.948,194.568L153.948,194.568z M138.238,185.568h13.766l1.746-11.822l2.332-0.984
	c2.544-1.074,4.696-2.292,6.398-3.618l2.018-1.573l11.626,4.532l6.761-11.397l-9.809-7.414l0.33-2.588
	c0.164-1.285,0.316-2.478,0.316-3.645c0-1.329-0.087-2.4-0.272-3.369l-0.523-2.734l9.876-7.536l-6.764-11.4l-11.482,4.513
	l-2.009-1.506c-2.158-1.618-4.249-2.798-6.393-3.605l-2.478-0.935l-1.763-11.938h-13.677l-1.746,11.822l-2.332,0.984
	c-2.518,1.063-4.724,2.299-6.555,3.671l-2.009,1.506l-11.482-4.513l-6.763,11.4l9.727,7.422l-0.331,2.575
	c-0.153,1.194-0.228,2.386-0.228,3.643c0,1.255,0.074,2.446,0.228,3.642l0.331,2.576l-9.727,7.42l6.763,11.401l11.482-4.512
	l2.009,1.506c2.157,1.617,4.248,2.796,6.393,3.605l2.478,0.934L138.238,185.568L138.238,185.568z"/>
<path d="M146.238,164.738c-8.147,0-14.776-6.629-14.776-14.776c0-8.148,6.629-14.777,14.776-14.777s14.776,6.629,14.776,14.777
	C161.015,158.109,154.386,164.738,146.238,164.738z M146.238,144.185c-3.186,0-5.776,2.592-5.776,5.777s2.591,5.776,5.776,5.776
	c3.185,0,5.776-2.591,5.776-5.776S149.424,144.185,146.238,144.185z"/>
</svg>
