<?xml version="1.0" encoding="utf-8"?>
<!-- Generator: Adobe Illustrator 17.0.0, SVG Export Plug-In . SVG Version: 6.00 Build 0)  -->
<!DOCTYPE svg PUBLIC "-//W3C//DTD SVG 1.1//EN" "http://www.w3.org/Graphics/SVG/1.1/DTD/svg11.dtd">
<svg version="1.1" id="图层_1" xmlns="http://www.w3.org/2000/svg" xmlns:xlink="http://www.w3.org/1999/xlink" x="0px" y="0px"
	 width="200px" height="200px" viewBox="0 0 200 200" enable-background="new 0 0 200 200" xml:space="preserve">
<path d="M45.7,103.8c1.3,0,2.3-1,2.3-2.3V59.1c0-0.6-0.3-1.2-0.7-1.7c10.1-19.1,30.4-31.3,52.5-31.3s42.4,12.2,52.5,31.4
	c-0.4,0.4-0.7,1-0.7,1.6v42.4c0,1.3,1,2.3,2.3,2.3c13.2,0,23.9-10.5,23.9-23.5c0-8.2-4.4-15.9-11.6-20.1
	c-10-27.4-36.7-45.8-66.5-45.8S43.3,32.8,33.1,60.2C26,64.5,21.6,72.1,21.6,80.3C21.7,93.3,32.5,103.8,45.7,103.8z"/>
<path d="M147.6,123.8c-0.9-0.4-1.9-0.3-2.6,0.4c-12.3,11.3-28.3,17.5-45.2,17.5c-16.8,0-32.9-6.2-45.2-17.4
	c-0.7-0.6-1.7-0.8-2.6-0.4c-24.2,12.2-37.6,33.3-37.6,59.4c0,1.3,1,2.3,2.3,2.3h166.7c1.3,0,2.3-1,2.3-2.3
	C185.6,157.1,172.1,136,147.6,123.8z M172.9,174.3H27.7c2.7-17.7,14.9-30.6,25.3-36.7c14,10.1,28.8,14.6,47.7,14.6
	c16.5,0,34.8-6.2,47-15.9C161.3,144.2,171.6,160,172.9,174.3z"/>
<path d="M99.8,35.7c-27.1,0-49.2,21.6-49.2,48.2s22.1,48.3,49.2,48.3s49.1-21.7,49.1-48.3C148.9,57.3,126.9,35.7,99.8,35.7z
	 M136.6,83.8c0,19.9-16.5,36-36.8,36S63,103.6,63,83.8c0-19.5,16.9-36,36.8-36C120,47.8,136.6,63.9,136.6,83.8z"/>
</svg>
