<?xml version="1.0" encoding="utf-8"?>
<!-- Generator: Adobe Illustrator 17.0.0, SVG Export Plug-In . SVG Version: 6.00 Build 0)  -->
<!DOCTYPE svg PUBLIC "-//W3C//DTD SVG 1.1//EN" "http://www.w3.org/Graphics/SVG/1.1/DTD/svg11.dtd">
<svg version="1.1" id="图层_1" xmlns="http://www.w3.org/2000/svg" xmlns:xlink="http://www.w3.org/1999/xlink" x="0px" y="0px"
	 width="200px" height="200px" viewBox="0 0 200 200" enable-background="new 0 0 200 200" xml:space="preserve">
<path d="M163.275,12.433H36.163c-6.918,0-12.549,5.628-12.549,12.549v149.993c0,6.921,5.631,12.549,12.549,12.549h127.112
	c6.918,0,12.549-5.628,12.549-12.549V24.983C175.824,18.062,170.194,12.433,163.275,12.433L163.275,12.433z M36.163,23.512h127.112
	c0.811,0,1.471,0.66,1.471,1.471v12.655H34.692V24.983C34.692,24.171,35.351,23.512,36.163,23.512z M163.275,176.448H36.163
	c-0.811,0-1.471-0.66-1.471-1.471V48.716h130.055v126.26C164.746,175.788,164.086,176.448,163.275,176.448z"/>
<path d="M94.177,62.261H55.328c-6.107,0-11.078,4.968-11.078,11.078v16.552c0,6.11,4.971,11.078,11.078,11.078h38.849
	c6.107,0,11.078-4.968,11.078-11.078V73.339C105.255,67.229,100.284,62.261,94.177,62.261z M55.328,89.891V73.339h38.849
	l0.005,16.552H55.328z M148.281,62.261h-26.9c-3.062,0-5.539,2.48-5.539,5.539c0,3.059,2.478,5.539,5.539,5.539h26.9
	c3.062,0,5.539-2.48,5.539-5.539S151.342,62.261,148.281,62.261L148.281,62.261z M148.281,89.891h-13.978
	c-3.062,0-5.539,2.48-5.539,5.539c0,3.059,2.478,5.539,5.539,5.539h13.978c3.062,0,5.539-2.48,5.539-5.539
	C153.82,92.371,151.342,89.891,148.281,89.891z M94.177,122.45H55.328c-6.107,0-11.078,4.968-11.078,11.078v16.552
	c0,6.11,4.971,11.078,11.078,11.078h38.849c6.107,0,11.078-4.968,11.078-11.078v-16.552
	C105.255,127.418,100.284,122.45,94.177,122.45z M55.328,150.08v-16.552h38.849l0.005,16.552H55.328z M148.281,122.45h-26.9
	c-3.062,0-5.539,2.48-5.539,5.539s2.478,5.539,5.539,5.539h26.9c3.062,0,5.539-2.48,5.539-5.539
	C153.82,124.93,151.342,122.45,148.281,122.45L148.281,122.45z M148.281,150.08h-13.978c-3.062,0-5.539,2.48-5.539,5.539
	s2.478,5.539,5.539,5.539h13.978c3.062,0,5.539-2.48,5.539-5.539C153.82,152.56,151.342,150.08,148.281,150.08z"/>
</svg>
