<?xml version="1.0" encoding="utf-8"?>
<!-- Generator: Adobe Illustrator 17.0.0, SVG Export Plug-In . SVG Version: 6.00 Build 0)  -->
<!DOCTYPE svg PUBLIC "-//W3C//DTD SVG 1.1//EN" "http://www.w3.org/Graphics/SVG/1.1/DTD/svg11.dtd">
<svg version="1.1" id="图层_1" xmlns="http://www.w3.org/2000/svg" xmlns:xlink="http://www.w3.org/1999/xlink" x="0px" y="0px"
	 width="200px" height="200px" viewBox="0 0 200 200" enable-background="new 0 0 200 200" xml:space="preserve">
<path d="M177.608,92.895c-8.314,14.168-20.032,25.753-31.357,36.955c-10.697,10.552-20.782,20.532-27.497,31.968
	c-5.043,8.564-7.653,17.239-8.014,26.514c-0.075,1.967-0.636,3.885-1.633,5.582c-1.1,1.877-2.716,3.443-4.698,4.526
	c-3.776,2.047-8.34,2.007-12.079-0.106l-75.187-42.692c-3.92-2.213-6.282-6.425-6.126-10.924
	c0.505-13.301,4.204-25.608,11.269-37.671c8.325-14.168,20.032-25.753,31.373-36.944c10.68-10.558,20.771-20.549,27.491-31.99
	c5.037-8.564,7.653-17.233,7.997-26.508c0.172-4.254,2.585-8.099,6.342-10.102c3.774-2.048,8.338-2.006,12.074,0.111l75.181,42.692
	c3.92,2.209,6.286,6.416,6.137,10.913C188.372,68.525,184.678,80.849,177.608,92.895L177.608,92.895z M101.422,12.071
	C99.2,70.169,25.518,87.075,23.286,145.179c24.903,14.129,50.284,28.552,75.187,42.692c2.227-58.104,75.903-75.015,78.142-133.107
	L101.422,12.071z M127.18,117.615c-0.573,0.21-1.206,0.177-1.755-0.089c-1.308-0.648-2.602-1.324-3.882-2.027
	c-1.572,2.682-3.36,4.682-5.348,6.048c-3.375,2.421-7.582,3.383-11.674,2.671c-1.657-0.273-3.243-0.873-4.665-1.766
	c-1.3-0.85-2.11-1.822-2.405-2.899c-0.294-1.094-0.072-2.194,0.672-3.282c0.728-1.044,1.483-1.661,2.294-1.861
	s1.655-0.2,2.521-0.028c0.878,0.172,1.783,0.422,2.716,0.75c0.927,0.317,1.899,0.5,2.905,0.539c1,0.028,2.027-0.217,3.105-0.755
	c1.083-0.533,2.188-1.583,3.338-3.199c-4.619-2.846-9.178-5.788-13.673-8.825c-3.771,3.488-7.564,5.687-11.302,6.914
	c-3.754,1.216-7.309,1.116-10.719-0.428c-2.094-0.95-3.671-2.116-4.782-3.699c-1.14-1.631-1.88-3.506-2.16-5.476
	c-0.337-2.222-0.298-4.484,0.117-6.692c0.411-2.355,1.122-4.676,2.149-6.881l-1.422-0.661c-0.542-0.25-0.958-0.709-1.155-1.272
	c-0.235-0.586-0.201-1.246,0.094-1.805c0.263-0.593,0.779-1.036,1.405-1.205c0.586-0.175,1.217-0.115,1.761,0.167l1.45,0.766
	c0.744-1.244,1.827-2.605,3.249-4.032c1.422-1.427,3.021-2.588,4.782-3.504c1.707-0.872,3.566-1.408,5.476-1.577
	c1.864-0.165,3.728,0.324,5.271,1.383c1.277,0.833,2.022,1.838,2.277,2.999c0.249,1.103,0.016,2.26-0.639,3.182
	c-0.595,0.866-1.566,1.397-2.616,1.433c-1.111,0.072-2.321,0.111-3.66,0.139c-1.347,0.017-2.685,0.23-3.971,0.633
	c-1.327,0.394-2.544,1.411-3.632,3.066c4.189,2.56,8.324,5.207,12.402,7.942c1.755-1.494,3.532-2.855,5.315-4.143
	c1.788-1.277,3.66-2.238,5.565-2.894c1.941-0.657,3.982-0.973,6.031-0.933c2.099,0.017,4.343,0.589,6.709,1.672
	c2.072,0.939,3.632,2.06,4.76,3.56c1.122,1.477,1.855,3.232,2.199,5.304c0.339,2.06,0.3,4.393-0.139,6.914
	c-0.49,2.674-1.31,5.277-2.444,7.748c1.283,0.639,2.56,1.227,3.832,1.772c0.528,0.237,0.936,0.681,1.127,1.227
	c0.226,0.607,0.192,1.28-0.094,1.861C128.306,116.968,127.801,117.423,127.18,117.615L127.18,117.615z M81.045,90.03
	c-0.583,1.111-0.989,2.205-1.177,3.243c-0.205,0.963-0.23,1.955-0.072,2.927c0.15,0.911,0.45,1.699,0.894,2.371
	c0.408,0.664,0.985,1.208,1.672,1.577c1.611,0.883,3.227,1.044,4.887,0.533c1.655-0.516,3.454-1.694,5.398-3.527
	C88.854,94.661,84.985,92.285,81.045,90.03z M117.805,98.955c-0.538-0.928-1.33-1.684-2.283-2.177
	c-0.957-0.555-2.043-0.846-3.149-0.844c-1.019,0.025-2.024,0.246-2.96,0.65c-0.943,0.426-1.836,0.957-2.66,1.583
	c-0.855,0.65-1.633,1.272-2.383,1.872c4.332,2.844,8.636,5.598,12.868,8.025c0.511-0.944,0.883-1.966,1.155-3.077
	c0.278-1.122,0.367-2.183,0.272-3.205C118.576,100.79,118.283,99.828,117.805,98.955L117.805,98.955z M114.734,32.232l-2.566,6.542
	c-1.611,4.076-3.616,8.164-5.97,12.179c-2.471,4.131-5.209,8.095-8.197,11.868l-0.028-0.006c-0.901,1.388-2.728,1.831-4.165,1.011
	c-1.458-0.825-1.97-2.675-1.146-4.133c0.152-0.268,0.343-0.511,0.568-0.721c2.771-3.538,5.387-7.17,7.653-11.041
	c2.194-3.738,4.06-7.553,5.554-11.346l2.494-6.342c0.067-0.299,0.175-0.587,0.322-0.855c0.872-1.462,2.754-1.957,4.232-1.111
	c1.394,0.781,1.935,2.514,1.233,3.949C114.717,32.226,114.734,32.232,114.734,32.232z M93.941,149.888
	c2.449-4.188,5.259-8.092,8.203-11.868l0.011-0.006c0.935-1.252,2.653-1.615,4.015-0.85c1.447,0.806,1.967,2.632,1.161,4.079
	c-0.011,0.02-0.022,0.039-0.033,0.058c-0.072,0.111-0.151,0.217-0.239,0.317l0.017,0.011c-2.873,3.568-5.487,7.337-7.82,11.28
	c-2.147,3.629-4.006,7.421-5.559,11.341l-2.399,6.098c-0.059,0.247-0.153,0.484-0.278,0.705c-0.875,1.444-2.736,1.936-4.21,1.111
	c-1.251-0.703-1.832-2.19-1.388-3.554l-0.017-0.011l2.571-6.52C89.581,158.008,91.58,153.904,93.941,149.888L93.941,149.888z"/>
</svg>
