<?xml version="1.0" standalone="no"?><!DOCTYPE svg PUBLIC "-//W3C//DTD SVG 1.1//EN" "http://www.w3.org/Graphics/SVG/1.1/DTD/svg11.dtd"><svg t="1692866736742" class="icon" viewBox="0 0 1024 1024" version="1.1" xmlns="http://www.w3.org/2000/svg" p-id="6939" xmlns:xlink="http://www.w3.org/1999/xlink" width="200" height="200"><path d="M860.586667 704.426667l-108.586667-25.173334c34.56-18.56 58.24-56.746667 58.24-100.266666v-50.133334c0-62.08-48-112.853333-106.666667-112.853333-49.066667 0-90.666667 35.84-103.04 83.84-0.213333 0.64-0.213333 1.066667-0.426666 1.706667-0.64 2.346667-1.066667 4.693333-1.493334 7.253333-0.213333 1.493333-0.426667 2.773333-0.64 4.053333-0.213333 1.92-0.64 3.626667-0.64 5.546667-0.213333 3.413333-0.64 6.826667-0.64 10.24v50.133333c0 4.693333 0.426667 9.386667 0.853334 14.08 0.213333 1.706667 0.64 3.2 0.853333 4.906667 0.64 2.773333 1.066667 5.546667 1.706667 8.533333 0.426667 1.92 0.853333 3.84 1.493333 5.973334 1.066667 3.626667 2.346667 7.253333 3.84 10.88 9.813333 24.106667 27.306667 44.16 49.493333 56.106666l-9.813333 2.346667-98.56 22.826667C514.133333 711.68 490.666667 742.4 490.666667 778.026667v89.386666c0 27.733333 21.333333 50.133333 47.36 50.133334h331.946666C896 917.333333 917.333333 894.933333 917.333333 867.2v-89.386667c-0.426667-35.413333-23.893333-66.346667-56.746666-73.386666zM394.666667 853.333333H209.066667l171.306666-95.36c15.146667-6.826667 24.96-21.973333 24.96-38.826666V304.853333c0-16.64-9.813333-32-24.96-38.826666L209.066667 170.666667H576c11.733333 0 21.333333 9.6 21.333333 21.333333v117.333333c0 17.706667 14.293333 32 32 32s32-14.293333 32-32V192c0-47.146667-38.186667-85.333333-85.333333-85.333333H192C144.853333 106.666667 106.666667 144.853333 106.666667 192v640c0 47.146667 38.186667 85.333333 85.333333 85.333333h202.666667c17.706667 0 32-14.293333 32-32s-14.293333-32-32-32z" p-id="6940"></path></svg>