<?xml version="1.0" encoding="utf-8"?>
<!-- Generator: Adobe Illustrator 17.0.0, SVG Export Plug-In . SVG Version: 6.00 Build 0)  -->
<!DOCTYPE svg PUBLIC "-//W3C//DTD SVG 1.1//EN" "http://www.w3.org/Graphics/SVG/1.1/DTD/svg11.dtd">
<svg version="1.1" id="图层_1" xmlns="http://www.w3.org/2000/svg" xmlns:xlink="http://www.w3.org/1999/xlink" x="0px" y="0px"
	 width="200px" height="200px" viewBox="0 0 200 200" enable-background="new 0 0 200 200" xml:space="preserve">
<path d="M192.25,103.875L94.719,6.25c-1.799-1.775-4.223-2.773-6.75-2.781H87l-68.031,7.219c-4.357,0.485-7.797,3.924-8.281,8.281
	L3.563,87c-0.3,2.845,0.686,5.675,2.688,7.719l97.625,97.531c1.777,1.813,4.212,2.827,6.75,2.813
	c2.459-0.01,4.816-0.987,6.562-2.719l75-75c3.736-3.585,3.859-9.519,0.274-13.255C192.392,104.016,192.322,103.945,192.25,103.875
	L192.25,103.875z M110.563,181.25L16.156,86.875l6.688-64.031l64.031-6.688l94.375,94.406L110.563,181.25z"/>
<path d="M53.125,34.375c-10.355-0.009-18.757,8.378-18.767,18.733s8.378,18.757,18.733,18.767s18.757-8.378,18.766-18.733
	c0.004-4.974-1.968-9.747-5.483-13.266C62.862,36.358,58.096,34.379,53.125,34.375z M57.531,57.531
	c-2.434,2.448-6.391,2.46-8.839,0.026c-2.448-2.434-2.46-6.391-0.026-8.839s6.391-2.46,8.839-0.026
	c0.009,0.009,0.018,0.018,0.026,0.026C59.955,51.156,59.955,55.094,57.531,57.531z M84.063,75.219c-2.442-2.442-6.402-2.442-8.844,0
	s-2.442,6.402,0,8.844l4.438,4.406l-2.219,2.219c-7.326,7.318-7.333,19.19-0.015,26.517c0.005,0.005,0.01,0.01,0.015,0.015
	c7.32,7.311,19.18,7.311,26.5,0l13.281-13.281c2.322-2.554,6.275-2.741,8.829-0.419c2.554,2.322,2.741,6.275,0.419,8.829
	c-0.138,0.152-0.283,0.297-0.436,0.434l-6.594,6.625l-13.188,13.281c-2.554,2.322-2.741,6.275-0.419,8.829
	c2.322,2.554,6.275,2.741,8.829,0.419c0.152-0.138,0.296-0.283,0.434-0.435l8.844-8.813l4.187,4.406
	c2.477,2.477,6.492,2.477,8.969,0s2.477-6.492,0-8.969l-4.406-4.406l2.188-2.219c7.576-7.059,7.995-18.924,0.935-26.5
	c-7.059-7.576-18.924-7.995-26.5-0.935c-0.323,0.301-0.635,0.613-0.935,0.935l-13.25,13.25c-2.395,2.485-6.352,2.558-8.837,0.163
	c-1.216-1.172-1.906-2.786-1.913-4.475c0.007-1.655,0.67-3.24,1.844-4.406l20.031-19.875c2.442-2.442,2.442-6.402,0-8.844
	s-6.402-2.442-8.844,0l-8.844,8.844L84.063,75.219z"/>
</svg>
