<?xml version="1.0" standalone="no"?><!DOCTYPE svg PUBLIC "-//W3C//DTD SVG 1.1//EN" "http://www.w3.org/Graphics/SVG/1.1/DTD/svg11.dtd"><svg t="1693382689363" class="icon" viewBox="0 0 1024 1024" version="1.1" xmlns="http://www.w3.org/2000/svg" p-id="5199" xmlns:xlink="http://www.w3.org/1999/xlink" width="200" height="200"><path d="M265.216 820.65066666c5.12 5.632 12.8 8.704 20.992 8.704 16.384 0 29.184-12.8 29.184-29.184 0-105.984 85.504-194.048 189.952-196.608h12.288c105.472 3.072 190.976 91.136 190.976 196.608 0 16.384 12.8 29.184 29.184 29.184s29.184-12.8 29.184-29.184c0-33.792-6.656-67.072-19.456-99.328-12.8-30.72-31.232-57.856-54.784-80.384-21.504-21.504-46.592-38.912-77.312-53.248 4.608-3.584 8.704-7.68 12.8-11.264 30.72-30.72 47.616-72.192 47.616-116.224s-16.896-85.504-47.616-116.224c-30.72-30.72-72.192-47.616-116.224-47.616s-85.504 16.896-116.224 47.616c-30.72 30.72-47.616 72.192-47.616 116.224s16.896 85.504 47.616 116.224c4.096 4.096 8.704 8.192 12.8 11.776-29.184 12.8-54.784 30.72-76.288 53.248-22.016 22.016-39.936 48.128-54.784 80.384-12.8 29.696-19.456 62.976-19.456 98.816-0.512 7.68 2.048 15.36 7.168 20.48z m140.8-380.928c0-58.88 47.616-106.496 106.496-106.496 58.368 0 105.472 47.616 105.472 106.496 0 56.832-44.032 103.936-99.84 106.496h-12.288c-55.808-2.56-99.84-49.152-99.84-106.496z" p-id="5200"></path><path d="M905.216 139.17866666c-16.896-16.896-39.424-26.624-64-26.624h-61.952c-8.192 0-16.384 3.584-22.528 9.728-5.632 5.632-8.192 13.312-8.192 20.992 0.512 15.872 13.312 28.16 29.184 28.16h63.488c16.896 0 30.72 13.824 30.72 30.72v681.472c0 16.896-13.824 30.72-30.72 30.72H181.76c-16.896 0-30.72-13.824-30.72-30.72V202.15466666c0-16.896 13.824-30.208 30.72-30.208h61.952c8.192 0 16.384-3.584 22.528-9.728 5.632-5.632 8.192-13.312 8.192-20.992-0.512-15.872-13.312-28.16-29.184-28.16H181.76c-23.552-0.512-45.568 8.192-62.464 24.576-17.408 16.896-26.624 39.424-26.624 64v681.472c0 49.152 39.936 89.088 89.088 89.088h659.456c49.152 0 89.088-39.936 89.088-89.088V202.66666666c0.512-24.064-8.704-46.592-25.088-63.488z" p-id="5201"></path><path d="M328.704 233.38666666c16.384 0 29.184-12.8 29.184-29.184V82.34666666c0-16.384-12.8-29.184-29.184-29.184s-29.184 12.8-29.184 29.184v121.344c0 16.384 13.312 29.696 29.184 29.696zM673.28 222.12266666c5.632 6.144 13.824 9.216 22.016 9.216 16.384 0 29.184-12.8 29.184-29.184V81.32266666c0-16.384-12.8-29.184-29.184-29.184s-29.184 12.8-29.184 29.184v120.832c-0.512 7.168 2.048 14.336 7.168 19.968zM413.184 170.92266666h197.12c16.384 0 29.184-12.8 29.184-29.184s-12.8-29.184-29.184-29.184H413.184c-16.384 0-29.184 12.8-29.184 29.184s12.8 29.184 29.184 29.184z" p-id="5202"></path></svg>