<?xml version="1.0" standalone="no"?><!DOCTYPE svg PUBLIC "-//W3C//DTD SVG 1.1//EN" "http://www.w3.org/Graphics/SVG/1.1/DTD/svg11.dtd"><svg t="1704789390278" class="icon" viewBox="0 0 1024 1024" version="1.1" xmlns="http://www.w3.org/2000/svg" p-id="5270" xmlns:xlink="http://www.w3.org/1999/xlink" width="200" height="200"><path d="M835.2 1016.704a44.416 44.416 0 0 1-44.373333-44.373333v-74.496H716.373333a44.373333 44.373333 0 0 1 0-88.746667h74.538667v-30.122667h-74.538667a44.373333 44.373333 0 0 1 0-88.746666h70.997334l-102.698667-102.144a44.16 44.16 0 0 1-13.056-31.445334c0-11.861333 4.650667-23.04 13.013333-31.445333a45.525333 45.525333 0 0 1 62.890667 0.042667l87.637333 87.04 87.168-87.637334a44.629333 44.629333 0 0 1 62.933334-0.042666c8.405333 8.362667 13.013333 19.541333 13.013333 31.445333 0 11.904-4.608 23.04-13.013333 31.402667l-102.314667 102.784h71.125333a44.373333 44.373333 0 0 1 0 88.746666h-74.496v30.122667h74.538667a44.373333 44.373333 0 0 1 0 88.746667h-74.538667v74.496a44.373333 44.373333 0 0 1-44.288 44.373333" p-id="5271"></path><path d="M106.965333 155.434667v-15.104c0-8.362667 6.784-15.061333 15.104-15.061334h338.048l30.122667 30.122667H106.965333z m787.669334 0h-278.656L509.866667 49.877333a44.288 44.288 0 0 0-31.274667-13.312H122.069333A103.893333 103.893333 0 0 0 18.346667 140.373333v772.565334a103.936 103.936 0 0 0 103.765333 103.808h475.434667a44.373333 44.373333 0 0 0 0-88.746667H122.069333a15.104 15.104 0 0 1-15.104-15.061333V244.096h787.669334c8.32 0 15.061333 6.741333 15.061333 15.104V378.026667a44.373333 44.373333 0 0 0 88.704 0V259.2a103.850667 103.850667 0 0 0-103.765333-103.808z" p-id="5272"></path><path d="M240.896 416.896a38.869333 38.869333 0 0 1 0-77.696 38.912 38.912 0 0 1 0 77.696z m534.869333 0h-416a38.869333 38.869333 0 0 1 0-77.696h416c21.418667 0 38.826667 17.450667 38.826667 38.869333s-17.408 38.826667-38.826667 38.826667zM240.896 595.2a38.869333 38.869333 0 0 1 0-77.696 38.912 38.912 0 0 1 0 77.696z m297.130667 0H359.765333a38.869333 38.869333 0 0 1 0-77.696h178.261334c21.461333 0 38.869333 17.408 38.869333 38.826667s-17.408 38.869333-38.826667 38.869333z m-297.130667 178.304a38.869333 38.869333 0 0 1 0-77.738667 38.912 38.912 0 0 1 0 77.738667z m297.130667 0H359.765333a38.869333 38.869333 0 0 1 0-77.738667h178.261334c21.461333 0 38.869333 17.450667 38.869333 38.869334s-17.408 38.826667-38.826667 38.826666z" p-id="5273"></path></svg>