<?xml version="1.0" standalone="no"?><!DOCTYPE svg PUBLIC "-//W3C//DTD SVG 1.1//EN" "http://www.w3.org/Graphics/SVG/1.1/DTD/svg11.dtd"><svg t="1694393384281" class="icon" viewBox="0 0 1024 1024" version="1.1" xmlns="http://www.w3.org/2000/svg" p-id="15083" xmlns:xlink="http://www.w3.org/1999/xlink" width="200" height="200"><path d="M665.35804619 822.44930293c-14.92279013 0-26.12744385-11.19460518-26.12744385-25.38381709 0-14.91274072 11.19460518-26.12744385 26.12744385-26.12744385h122.39702578c14.91274072 0 26.12744385 11.20465371 26.12744385 25.38381709 0 14.92279013-11.19460518 26.12744385-26.12744385 26.12744385zM325.81181533 718.71330166c-14.93283867 0-26.12744385-11.19460518-26.12744385-26.12744385a25.97670878 25.97670878 0 0 1 26.12744385-26.12744385h461.18958047c14.93283867 0 26.12744385 11.20465371 26.12744385 26.12744385 0 14.1791625-11.93823193 26.12744385-27.61469824 26.12744385z m0-102.23869746c-13.43553575 0-26.12744385-12.68185958-26.12744385-26.12744384a25.96665937 25.96665937 0 0 1 26.12744385-26.12744385h460.44595283c14.92279013 0 26.12744385 11.19460518 26.12744385 26.12744385s-11.19460518 26.12744385-26.12744384 26.12744384z m0-103.73600127a26.44901279 26.44901279 0 0 1-26.12744385-26.12744385 25.96665937 25.96665937 0 0 1 26.12744385-26.12744385h460.44595283a25.95661084 25.95661084 0 0 1 26.12744385 26.12744385c0 14.93283867-11.19460518 26.12744385-26.12744384 26.12744385z m0 0" p-id="15084"></path><path d="M117.59618604 962A31.53381503 31.53381503 0 0 1 86.25330195 930.6571168V168.71051006a31.53381503 31.53381503 0 0 1 31.34288409-31.29263877h74.63404775V93.3428832A31.53381503 31.53381503 0 0 1 223.57311787 62.05024531h558.20278916c85.8186044 0 155.97079102 70.14213808 155.97079102 155.97079102v712.63608047a31.53381503 31.53381503 0 0 1-31.34288409 31.3428832z m137.31981503-63.42939492H875.80455752V217.97079102c0-51.49116211-42.53748838-94.02865049-94.02865049-94.02865138H254.91600107z m-105.97693183 0h44.03479219V198.56613886H148.93906924z m0 0" p-id="15085"></path><path d="M484.01348838 370.95702383a16.57082901 16.57082901 0 0 1-16.4401919-16.42009394v-79.10586036l-113.40315527 85.07497675-0.75367618 0.74362677a15.99803526 15.99803526 0 0 1-14.17916337 8.21004697h-0.74362676c-0.74362763 0-2.24093057-0.74362763-3.72818584-0.74362676a15.25440761 15.25440761 0 0 1-11.89803515-14.93283955v-147.72054814a16.42009394 16.42009394 0 0 1 32.84018701 0v77.61860683l114.17692939-85.07497675 0.75367617-0.74362765c3.01470469-5.22548877 8.95367373-8.21004697 14.92279014-8.21004696a6.73284112 6.73284112 0 0 1 3.72818496 0.74362763c6.71274316 2.24093057 11.93823193 8.95367373 11.93823194 15.6664169v147.72054814c-0.74362763 8.96372315-8.19999756 17.17377011-17.16372071 17.17377012z m0 0" p-id="15086"></path></svg>