<?xml version="1.0" encoding="utf-8"?>
<!-- Generator: Adobe Illustrator 17.0.0, SVG Export Plug-In . SVG Version: 6.00 Build 0)  -->
<!DOCTYPE svg PUBLIC "-//W3C//DTD SVG 1.1//EN" "http://www.w3.org/Graphics/SVG/1.1/DTD/svg11.dtd">
<svg version="1.1" id="图层_1" xmlns="http://www.w3.org/2000/svg" xmlns:xlink="http://www.w3.org/1999/xlink" x="0px" y="0px"
	 width="200px" height="200px" viewBox="0 0 200 200" enable-background="new 0 0 200 200" xml:space="preserve">
<path fill-opacity="0.9" d="M140.625,21.875c-20.711,0-37.5,16.789-37.5,37.5s16.789,37.5,37.5,37.5s37.5-16.789,37.5-37.5
	S161.336,21.875,140.625,21.875z M115.625,59.375c0-13.807,11.193-25,25-25s25,11.193,25,25s-11.193,25-25,25
	S115.625,73.182,115.625,59.375z M25,37.5C25,30.596,30.596,25,37.5,25h43.75c6.904,0,12.5,5.596,12.5,12.5v43.75
	c0,6.904-5.596,12.5-12.5,12.5H37.5c-6.904,0-12.5-5.596-12.5-12.5V37.5z M37.5,37.5v43.75h43.75V37.5H37.5z M25,118.75
	c0-6.904,5.596-12.5,12.5-12.5h43.75c6.904,0,12.5,5.596,12.5,12.5v43.75c0,6.904-5.596,12.5-12.5,12.5H37.5
	c-6.904,0-12.5-5.596-12.5-12.5V118.75z M37.5,118.75v43.75h43.75v-43.75H37.5z M106.25,118.75c0-6.904,5.596-12.5,12.5-12.5h43.75
	c6.904,0,12.5,5.596,12.5,12.5v43.75c0,6.904-5.596,12.5-12.5,12.5h-43.75c-6.904,0-12.5-5.596-12.5-12.5V118.75z M118.75,162.5
	h43.75v-43.75h-43.75V162.5z"/>
</svg>
