<?xml version="1.0" standalone="no"?><!DOCTYPE svg PUBLIC "-//W3C//DTD SVG 1.1//EN" "http://www.w3.org/Graphics/SVG/1.1/DTD/svg11.dtd"><svg t="1692868308536" class="icon" viewBox="0 0 1024 1024" version="1.1" xmlns="http://www.w3.org/2000/svg" p-id="12926" xmlns:xlink="http://www.w3.org/1999/xlink" width="200" height="200"><path d="M682.666667 597.333333h64v120.32l104.106666 60.16-32 55.466667L682.666667 754.773333V597.333333m341.333333 128a298.666667 298.666667 0 0 1-298.666667 298.666667c-119.04 0-221.866667-69.973333-270.08-170.666667H170.666667a85.333333 85.333333 0 0 1-85.333334-85.333333V256c0-47.36 37.973333-85.333333 85.333334-85.333333h682.666666a85.333333 85.333333 0 0 1 85.333334 85.333333v260.266667c52.906667 53.76 85.333333 127.573333 85.333333 209.066666m-298.666667-213.333333a213.333333 213.333333 0 0 0-213.333333 213.333333 213.333333 213.333333 0 0 0 213.333333 213.333334 213.333333 213.333333 0 0 0 213.333334-213.333334 213.333333 213.333333 0 0 0-213.333334-213.333333m128-85.333333V298.666667H170.666667v128h682.666666z" p-id="12927"></path></svg>