<?xml version="1.0" encoding="utf-8"?>
<!-- Generator: Adobe Illustrator 17.0.0, SVG Export Plug-In . SVG Version: 6.00 Build 0)  -->
<!DOCTYPE svg PUBLIC "-//W3C//DTD SVG 1.1//EN" "http://www.w3.org/Graphics/SVG/1.1/DTD/svg11.dtd">
<svg version="1.1" id="图层_1" xmlns="http://www.w3.org/2000/svg" xmlns:xlink="http://www.w3.org/1999/xlink" x="0px" y="0px"
	 width="200px" height="200px" viewBox="0 0 200 200" enable-background="new 0 0 200 200" xml:space="preserve">
<path d="M72.788,120.672H40.739v10.764h30.993C71.868,127.77,72.227,124.178,72.788,120.672L72.788,120.672z"/>
<path d="M40.739,78.88h69.103c5.785-2.695,12.003-4.305,18.491-4.632v-6.133H40.739V78.88L40.739,78.88z"/>
<path d="M30.959,150.291c-4.072,0-5.77-1.699-5.77-5.767V28.689c0-4.068,1.698-5.766,5.77-5.766h107.154
	c4.068,0,5.771,1.698,5.771,5.766v46.333c4.587,0.84,6.584,2.212,10.728,4.048V20.941c0-4.837-3.923-8.759-8.759-8.759H23.22
	c-4.838,0-8.76,3.922-8.76,8.759v131.392c0,4.836,3.923,8.759,8.76,8.759h55.439c-2.216-4.132-3.958-6.156-5.148-10.801H34.956
	H30.959z"/>
<path d="M40.739,41.837h87.594v10.764H40.739C40.739,52.601,40.739,41.837,40.739,41.837z"/>
<path d="M132.695,82.077c-28.935,0-52.393,23.455-52.393,52.394c0,28.934,23.459,52.394,52.393,52.394
	c28.938,0,52.394-23.46,52.394-52.394C185.089,105.532,161.634,82.077,132.695,82.077z M132.789,176.807
	c-23.241,0-42.08-18.838-42.08-42.078c0-23.242,18.839-42.081,42.08-42.081c23.242,0,42.08,18.839,42.08,42.081
	C174.869,157.969,156.03,176.807,132.789,176.807z"/>
<path d="M40.739,94.393v10.764h38.534c1.753-3.814,3.776-7.417,6.042-10.764L40.739,94.393z"/>
<path d="M133.114,139.553v-24.332h-10.576v35.108h35.107v-10.775H133.114z"/>
</svg>
