<?xml version="1.0" encoding="utf-8"?>
<!-- Generator: Adobe Illustrator 17.0.0, SVG Export Plug-In . SVG Version: 6.00 Build 0)  -->
<!DOCTYPE svg PUBLIC "-//W3C//DTD SVG 1.1//EN" "http://www.w3.org/Graphics/SVG/1.1/DTD/svg11.dtd">
<svg version="1.1" id="图层_1" xmlns="http://www.w3.org/2000/svg" xmlns:xlink="http://www.w3.org/1999/xlink" x="0px" y="0px"
	 width="200px" height="200px" viewBox="0 0 200 200" enable-background="new 0 0 200 200" xml:space="preserve">
<path d="M168.182,12.432c12.552,0,22.727,10.175,22.727,22.727l0,0v136.582c0,10.042-8.14,18.182-18.182,18.182
	c-3.874,0-7.647-1.237-10.768-3.532L134.755,166.4l-22.764,20.418c-6.506,5.839-16.247,6.221-23.191,0.909l-0.755-0.614
	L63.75,166.373L38.3,185.791c-7.685,5.864-18.614,4.689-24.877-2.673l-0.605-0.755c-2.417-3.168-3.727-7.042-3.727-11.027V35.159
	c0-12.552,10.175-22.727,22.727-22.727H168.182z M168.182,30.614H31.818c-2.51,0-4.545,2.035-4.545,4.545v136.173l28.368-21.636
	c4.835-3.689,11.529-3.73,16.409-0.1l0.714,0.568l27.091,23.123l25.514-22.891c4.807-4.312,11.979-4.661,17.182-0.836l30.177,22.182
	V35.159C172.727,32.649,170.692,30.614,168.182,30.614L168.182,30.614z M136.364,104.545c5.021,0,9.091,4.07,9.091,9.091
	s-4.07,9.091-9.091,9.091l0,0H63.636c-5.021,0-9.091-4.07-9.091-9.091s4.07-9.091,9.091-9.091H136.364z M136.364,63.636
	c5.021-0.001,9.091,4.069,9.092,9.09c0.001,5.021-4.069,9.091-9.09,9.092c-0.001,0-0.001,0-0.002,0H63.636
	c-5.021,0.001-9.091-4.069-9.092-9.09c-0.001-5.021,4.069-9.091,9.09-9.092c0.001,0,0.001,0,0.002,0H136.364z"/>
</svg>
