<?xml version="1.0" encoding="utf-8"?>
<!-- Generator: Adobe Illustrator 17.0.0, SVG Export Plug-In . SVG Version: 6.00 Build 0)  -->
<!DOCTYPE svg PUBLIC "-//W3C//DTD SVG 1.1//EN" "http://www.w3.org/Graphics/SVG/1.1/DTD/svg11.dtd">
<svg version="1.1" id="图层_1" xmlns="http://www.w3.org/2000/svg" xmlns:xlink="http://www.w3.org/1999/xlink" x="0px" y="0px"
	 width="200px" height="200px" viewBox="0 0 200 200" enable-background="new 0 0 200 200" xml:space="preserve">
<path d="M28.125,90.625c3.452,0,6.25,2.798,6.25,6.25V100c0,36.175,30.419,65.625,68.081,65.625
	c17.206,0,33.375-6.169,45.794-17.063l1.6-1.444l2.281-2.137c2.522-2.355,6.475-2.221,8.831,0.3l4.269,4.562
	c2.359,2.52,2.229,6.475-0.29,8.834c-0.001,0.001-0.002,0.002-0.004,0.003l-2.288,2.131c-16.069,15.025-37.456,23.563-60.187,23.563
	c-27.563,0-52.169-12.494-68.088-32v7c0,3.452-2.798,6.25-6.25,6.25h-6.25c-3.452,0-6.25-2.798-6.25-6.25v-62.5
	c0-3.452,2.798-6.25,6.25-6.25L28.125,90.625L28.125,90.625z M122.481,59.6l4.744,4.063c2.62,2.247,2.922,6.193,0.675,8.812
	l-7.525,8.775h7.75c3.452,0,6.25,2.798,6.25,6.25v6.25c0,3.452-2.798,6.25-6.25,6.25h-18.75v6.25h18.75
	c3.452,0,6.25,2.798,6.25,6.25v6.25c0,3.452-2.798,6.25-6.25,6.25h-18.75v12.5c0,3.452-2.798,6.25-6.25,6.25h-6.25
	c-3.452,0-6.25-2.798-6.25-6.25V125h-18.75c-3.452,0-6.25-2.798-6.25-6.25v-6.25c0-3.452,2.798-6.25,6.25-6.25h18.75V100h-18.75
	c-3.452,0-6.25-2.798-6.25-6.25V87.5c0-3.452,2.798-6.25,6.25-6.25h7.744L72.1,72.481c-2.247-2.62-1.945-6.565,0.675-8.812
	l4.75-4.069c2.62-2.247,6.565-1.945,8.813,0.675L100,76.219l13.663-15.938c2.243-2.623,6.189-2.931,8.812-0.688c0,0,0,0,0,0
	L122.481,59.6z M98.669,15.625c27.081,0,51.25,12.375,66.956,31.7v-6.7c0-3.452,2.798-6.25,6.25-6.25h6.25
	c3.452,0,6.25,2.798,6.25,6.25v62.5c0,3.452-2.798,6.25-6.25,6.25h-6.25c-3.452,0-6.25-2.798-6.25-6.25V100
	c0-36.206-29.938-65.625-66.95-65.625c-17.75,0-34.369,6.787-46.769,18.662l-1.469,1.45l-2.188,2.231
	c-2.419,2.463-6.376,2.499-8.838,0.08c-0.002-0.002-0.004-0.003-0.005-0.005l-4.456-4.375c-2.463-2.419-2.499-6.376-0.08-8.838
	c0.002-0.002,0.003-0.004,0.005-0.005l2.188-2.231c16.244-16.508,38.452-25.779,61.612-25.719H98.669z"/>
</svg>
