<?xml version="1.0" encoding="utf-8"?>
<!-- Generator: Adobe Illustrator 17.0.0, SVG Export Plug-In . SVG Version: 6.00 Build 0)  -->
<!DOCTYPE svg PUBLIC "-//W3C//DTD SVG 1.1//EN" "http://www.w3.org/Graphics/SVG/1.1/DTD/svg11.dtd">
<svg version="1.1" id="图层_1" xmlns="http://www.w3.org/2000/svg" xmlns:xlink="http://www.w3.org/1999/xlink" x="0px" y="0px"
	 width="200px" height="200px" viewBox="0 0 200 200" enable-background="new 0 0 200 200" xml:space="preserve">
<path d="M187.676,176.289l-40.742-40.742c10.078-12.949,16.094-29.199,16.094-46.875c-0.02-42.188-34.199-76.367-76.367-76.367
	s-76.348,34.18-76.348,76.348s34.18,76.367,76.348,76.367c19.707,0,37.676-7.48,51.23-19.727l40.391,40.391
	c1.211,1.25,2.891,2.031,4.766,2.031c3.672,0,6.641-2.969,6.641-6.641C189.707,179.258,188.965,177.539,187.676,176.289
	L187.676,176.289z M86.406,151.27c-34.668,0-62.754-28.105-62.754-62.754c0-34.668,28.105-62.754,62.754-62.754
	s62.754,28.105,62.754,62.754C149.18,123.184,121.074,151.27,86.406,151.27z"/>
<path d="M112.344,89.395c3.262,0,5.898-2.656,5.898-5.898c0-3.262-2.637-5.898-5.898-5.898H96.777l19.746-20.723
	c2.246-2.363,2.168-6.094-0.195-8.34c-2.363-2.246-6.094-2.168-8.34,0.195L87.754,70L67.656,48.945
	c-2.246-2.363-5.977-2.441-8.34-0.195s-2.441,5.977-0.195,8.34L78.73,77.637H63.594c-3.262,0-5.898,2.637-5.898,5.898
	c0,3.262,2.637,5.898,5.898,5.898h18.301v8.223H63.398c-3.262,0-5.898,2.637-5.898,5.898c0,3.262,2.637,5.898,5.898,5.898h18.496
	v17.969c0,3.262,2.637,5.898,5.898,5.898s5.898-2.637,5.898-5.879v-17.988h18.477c3.262,0,5.898-2.637,5.898-5.898
	s-2.656-5.898-5.918-5.898H93.672v-8.262H112.344z"/>
</svg>
