<?xml version="1.0" encoding="utf-8"?>
<!-- Generator: Adobe Illustrator 17.0.0, SVG Export Plug-In . SVG Version: 6.00 Build 0)  -->
<!DOCTYPE svg PUBLIC "-//W3C//DTD SVG 1.1//EN" "http://www.w3.org/Graphics/SVG/1.1/DTD/svg11.dtd">
<svg version="1.1" id="图层_1" xmlns="http://www.w3.org/2000/svg" xmlns:xlink="http://www.w3.org/1999/xlink" x="0px" y="0px"
	 width="200px" height="200px" viewBox="0 0 200 200" enable-background="new 0 0 200 200" xml:space="preserve">
<path d="M117.189,14.292l2.684,18.511l1.074,7.682l6.96,3.221c2.952,1.429,5.814,3.036,8.571,4.813l6.257,4.11l6.96-2.684
	l18.215-7.145l16.956,28.397l-14.994,11.422l-6.257,4.813l0.722,7.849c0.236,3.081,0.236,6.175,0,9.256l-0.722,7.849l6.257,4.813
	l14.994,11.422l-16.79,28.397l-18.4-7.145l-6.96-2.684l-6.257,4.11c-2.698,1.872-5.568,3.484-8.571,4.813l-6.96,3.221l-1.074,7.497
	l-2.684,18.752H82.906l-2.684-18.511l-1.074-7.682l-6.96-3.221c-2.952-1.429-5.814-3.036-8.571-4.813l-6.257-4.11l-6.96,2.684
	l-18.215,7.145l-16.956-28.397l14.994-11.422l6.257-4.813l-0.722-7.849c-0.237-3.081-0.237-6.175,0-9.256l0.722-7.849l-6.257-4.813
	L15.228,71.252l16.79-28.397l18.4,7.145l6.96,2.684l6.257-4.11c2.698-1.872,5.568-3.484,8.571-4.813l6.96-3.221l1.074-7.497
	l2.684-18.752h34.283 M119.152,0.001H80.944c-5.908-0.08-10.989,4.167-11.958,9.996l-2.851,20.714
	c-3.658,1.687-7.179,3.655-10.533,5.887l-20.177-7.849c-1.376-0.501-2.831-0.745-4.295-0.722c-4.272-0.099-8.25,2.164-10.348,5.887
	L1.678,66.05c-3.025,5.053-1.801,11.569,2.851,15.179l16.956,12.865c-0.185,2.147-0.352,4.11-0.352,5.887
	c-0.05,1.969,0.067,3.938,0.352,5.887L4.529,118.734c-4.683,3.592-5.911,10.133-2.851,15.179l18.937,31.969
	c2.183,3.751,6.193,6.062,10.533,6.072c1.403,0.021,2.798-0.224,4.11-0.722l20.177-7.849c3.331,2.268,6.856,4.238,10.533,5.887
	l3.036,20.529c0.894,5.898,5.993,10.239,11.958,10.181h38.208c5.908,0.08,10.989-4.167,11.958-9.996l3.036-20.714
	c3.658-1.687,7.179-3.655,10.533-5.887l20.177,7.849c1.37,0.498,2.819,0.743,4.276,0.722c4.272,0.099,8.25-2.164,10.348-5.887
	l19.104-32.321c2.883-5.054,1.586-11.46-3.036-14.994l-16.956-12.865c0.476-3.916,0.476-7.876,0-11.792l16.956-12.865
	c4.683-3.592,5.911-10.133,2.851-15.179l-18.919-31.969c-2.183-3.751-6.193-6.062-10.533-6.072c-1.403-0.021-2.798,0.224-4.11,0.722
	l-20.177,7.849c-3.331-2.268-6.856-4.238-10.533-5.887l-3.017-20.511C130.241,4.273,125.127-0.074,119.152,0.001z"/>
<path d="M134.572,58.257l-24.787,29.119h19.622v10.07H106.36v14.013h23.047v10.144H106.36v20.14H93.772v-20.14H70.004v-10.144
	h23.769V97.445H70.004v-10.07h20.029L65.561,58.257h14.402l17.105,19.048c0.95,1.975,2.024,4.492,3.221,7.553h0.259
	c0.966-2.687,2.091-5.314,3.369-7.867l17.16-18.734L134.572,58.257z"/>
</svg>
