<?xml version="1.0" standalone="no"?><!DOCTYPE svg PUBLIC "-//W3C//DTD SVG 1.1//EN" "http://www.w3.org/Graphics/SVG/1.1/DTD/svg11.dtd"><svg t="1695022097823" class="icon" viewBox="0 0 1024 1024" version="1.1" xmlns="http://www.w3.org/2000/svg" p-id="4049" xmlns:xlink="http://www.w3.org/1999/xlink" width="200" height="200"><path d="M625.762397 1024H49.842297a34.389014 34.389014 0 0 1-34.325094-34.325094L13.28 308.670162h960.655181v250.886392a291.859176 291.859176 0 0 0-348.108864 464.315606z m-482.660674-245.964544a64.878901 64.878901 0 0 0 0 129.693882h194.572784a64.878901 64.878901 0 0 0 0-129.693882z m0-194.572784a64.878901 64.878901 0 0 0 0 129.693882h194.572784a64.878901 64.878901 0 0 0 0-129.693882z m0-194.572784a64.878901 64.878901 0 1 0 0 129.693882h518.839451a64.878901 64.878901 0 0 0 0-129.693882z m830.961298-114.608739H13.28V119.786267a34.325094 34.325094 0 0 1 34.389014-34.133333h119.978027v51.58352a51.5196 51.5196 0 0 0 102.975281 0V85.652934H716.401099v51.58352a51.5196 51.5196 0 0 0 102.975281 0V85.652934h119.978027a34.261174 34.261174 0 0 1 34.325094 34.133333v154.558802z m-206.014482-103.039201a34.389014 34.389014 0 0 1-34.325093-34.325094V34.133333a34.389014 34.389014 0 0 1 68.714107 0v103.103121a34.389014 34.389014 0 0 1-34.389014 34.005494z m-548.945817 0a34.389014 34.389014 0 0 1-34.261174-34.005494V34.133333a34.389014 34.389014 0 0 1 68.714107 0v103.103121a34.389014 34.389014 0 0 1-34.452933 34.005494z" p-id="4050"></path><path d="M905.732434 794.974282a86.547815 86.547815 0 0 1 4.985768 25.951561 87.826217 87.826217 0 0 1-87.826217 87.826217 86.611735 86.611735 0 0 1-30.425968-6.39201l-46.278152 43.977029a147.01623 147.01623 0 0 0 205.950562-195.915106z" p-id="4051"></path><path d="M718.063021 808.269663a87.890137 87.890137 0 0 1 88.081898-87.570537 85.461174 85.461174 0 0 1 49.921598 17.322347l44.74407-42.442946a147.01623 147.01623 0 0 0-211.831211 201.540075l44.74407-42.442947a84.821973 84.821973 0 0 1-15.660425-46.405992z" p-id="4052"></path><path d="M953.033308 800.663171h56.441449l-75.297878-75.233958-75.233958 75.233958h56.441449" p-id="4053"></path><path d="M733.339925 848.922846h56.441448l-75.233957 75.233958-75.233958-75.233958h56.441448" p-id="4054"></path></svg>