<?xml version="1.0" encoding="utf-8"?>
<!-- Generator: Adobe Illustrator 17.0.0, SVG Export Plug-In . SVG Version: 6.00 Build 0)  -->
<!DOCTYPE svg PUBLIC "-//W3C//DTD SVG 1.1//EN" "http://www.w3.org/Graphics/SVG/1.1/DTD/svg11.dtd">
<svg version="1.1" id="图层_1" xmlns="http://www.w3.org/2000/svg" xmlns:xlink="http://www.w3.org/1999/xlink" x="0px" y="0px"
	 width="200px" height="200px" viewBox="0 0 200 200" enable-background="new 0 0 200 200" xml:space="preserve">
<path d="M65.707,39.116v-23.46c0-4.697-2.854-7.828-7.121-7.828s-7.121,3.131-7.121,7.828v23.46c0,4.697,2.854,7.828,7.121,7.828
	S65.707,43.813,65.707,39.116z M148.561,39.116v-23.46c0-4.697-2.854-7.828-7.121-7.828s-7.121,3.131-7.121,7.828v23.46
	c0,4.697,2.854,7.828,7.121,7.828S148.561,43.813,148.561,39.116z"/>
<path d="M177.576,22.424H22.424c-7.121,0-12.929,5.808-12.929,12.929v129.293c0,7.121,5.808,12.929,12.929,12.929h155.152
	c7.121,0,12.929-5.808,12.929-12.929V35.354C190.505,28.232,184.697,22.424,177.576,22.424z M177.576,61.212h-0.152v12.929h0.152
	v84.04c0,3.232-2.576,6.465-6.465,6.465H28.889c-3.889,0-6.465-3.232-6.465-6.465v-84.04h0.455V61.212h-0.455V41.818
	c0-3.232,2.576-6.465,6.465-6.465h142.222c3.889,0,6.465,3.232,6.465,6.465V61.212L177.576,61.212z"/>
<path d="M83.687,127.702l-4.899-12.475H58.712l-4.924,12.475H40.379L62.5,74.318h12.475l22.121,53.384
	C97.096,127.702,83.687,127.702,83.687,127.702z M74.722,104.899l-5.934-15.328l-6.01,15.328
	C62.778,104.899,74.722,104.899,74.722,104.899z M109.924,127.702V74.318h21.515c9.167,0,16.263,2.424,21.136,7.222
	c4.672,4.571,7.045,11.111,7.045,19.495c0,8.308-2.374,14.874-7.045,19.47c-4.874,4.798-11.97,7.222-21.136,7.222h-21.515V127.702z
	 M129.798,117.096c6.187,0,10.732-1.288,13.485-3.838c2.601-2.525,3.939-6.641,3.939-12.247c0-5.758-1.313-9.899-3.939-12.323
	c-2.702-2.5-7.247-3.763-13.485-3.763h-7.374v32.146h7.374V117.096z"/>
</svg>
