<?xml version="1.0" encoding="utf-8"?>
<!-- Generator: Adobe Illustrator 17.0.0, SVG Export Plug-In . SVG Version: 6.00 Build 0)  -->
<!DOCTYPE svg PUBLIC "-//W3C//DTD SVG 1.1//EN" "http://www.w3.org/Graphics/SVG/1.1/DTD/svg11.dtd">
<svg version="1.1" id="图层_1" xmlns="http://www.w3.org/2000/svg" xmlns:xlink="http://www.w3.org/1999/xlink" x="0px" y="0px"
	 width="201.172px" height="200px" viewBox="0 0 201.172 200" enable-background="new 0 0 201.172 200" xml:space="preserve">
<path d="M170.833,0c6.439,0,11.824,4.891,12.442,11.3l0.058,1.2v79.167c-0.005,4.602-3.74,8.329-8.343,8.324
	c-4.218-0.005-7.768-3.16-8.266-7.349l-0.058-0.975v-75h-150v150h66.708c4.225,0.001,7.781,3.163,8.275,7.358L91.708,175
	c-0.001,4.228-3.168,7.785-7.367,8.275l-0.967,0.058H12.5c-6.439,0-11.824-4.891-12.442-11.3L0,170.833V12.5
	C0,6.061,4.891,0.676,11.3,0.058L12.5,0H170.833z"/>
<path d="M83.333,100H125c4.602,0,8.333-3.731,8.333-8.333c0-4.602-3.731-8.333-8.333-8.333H83.333c-4.602,0-8.333,3.731-8.333,8.333
	C75,96.269,78.731,100,83.333,100z M41.667,100H50c4.602,0,8.333-3.731,8.333-8.333c0-4.602-3.731-8.333-8.333-8.333h-8.333
	c-4.602,0-8.333,3.731-8.333,8.333C33.333,96.269,37.064,100,41.667,100z M83.333,133.333h8.333c4.602-0.003,8.331-3.737,8.327-8.34
	c-0.003-4.598-3.73-8.324-8.327-8.327h-8.333c-4.602,0.003-8.331,3.737-8.327,8.34C75.01,129.604,78.736,133.33,83.333,133.333z
	 M41.667,133.333H50c4.602-0.003,8.331-3.737,8.327-8.34c-0.003-4.598-3.73-8.324-8.327-8.327h-8.333
	c-4.602,0.003-8.331,3.737-8.327,8.34C33.343,129.604,37.069,133.33,41.667,133.333z M75,58.333c0,4.602,3.731,8.333,8.333,8.333
	H125c4.602,0,8.333-3.731,8.333-8.333S129.602,50,125,50H83.333C78.731,50,75,53.731,75,58.333z M33.333,58.333
	c0,4.602,3.731,8.333,8.333,8.333H50c4.602,0,8.333-3.731,8.333-8.333C58.333,53.731,54.602,50,50,50h-8.333
	C37.064,50,33.333,53.731,33.333,58.333z"/>
<path d="M141.667,158.333c0,6.904,5.596,12.5,12.5,12.5s12.5-5.596,12.5-12.5s-5.596-12.5-12.5-12.5S141.667,151.43,141.667,158.333
	z"/>
<path d="M177.792,116.667h-47.25l-23.433,41.667L130.542,200h47.25l23.433-41.667L177.792,116.667L177.792,116.667z
	 M168.042,133.333l14.058,25l-14.067,25h-27.742l-14.067-25l14.058-25L168.042,133.333L168.042,133.333z"/>
</svg>
