<?xml version="1.0" standalone="no"?><!DOCTYPE svg PUBLIC "-//W3C//DTD SVG 1.1//EN" "http://www.w3.org/Graphics/SVG/1.1/DTD/svg11.dtd"><svg t="1693382619702" class="icon" viewBox="0 0 1024 1024" version="1.1" xmlns="http://www.w3.org/2000/svg" p-id="4033" xmlns:xlink="http://www.w3.org/1999/xlink" width="200" height="200"><path d="M653.6 607.2c24.2 0 45-21.8 45-47.3 0-25.5-20.8-47.3-45-47.3s-45 21.8-45 47.3 20.8 47.3 45 47.3zM332 338.1c17.3 0 31.1-14.5 31.1-29.1V156.2c0-14.6-13.8-29.1-31.1-29.1-13.8 0-27.7 10.9-27.7 29.1V309c0 14.5 10.4 29.1 27.7 29.1z m287.1 0c17.3 0 31.1-14.5 31.1-29.1V156.2c0-14.6-13.8-29.1-31.1-29.1-13.8 0-27.7 10.9-27.7 29.1V309c0 14.5 10.4 29.1 27.7 29.1z m-65.8-131H397.7v47.3h155.6v-47.3z m-76.1 585.7c24.2 0 45-21.8 45-47.3s-20.8-47.3-45-47.3-45 21.8-45 47.3 20.8 47.3 45 47.3z m-176.4 0c24.2 0 45-21.8 45-47.3s-20.8-47.3-45-47.3-45 21.8-45 47.3 20.8 47.3 45 47.3z m176.4-185.6c24.2 0 45-21.8 45-47.3 0-25.5-20.8-47.3-45-47.3s-45 21.8-45 47.3 20.8 47.3 45 47.3z m273.3-400.1h-58.8v47.3h58.8c17.3 0 34.6 14.6 34.6 36.4v120H172.9v-120c0-18.2 13.8-36.4 34.6-36.4h62.3v-47.3H211c-45 0-83 40-83 87.3v512.9c0 47.3 34.6 87.3 79.6 87.3h543c45 0 83-40 83-87.3V294.4c-0.1-47.3-38.1-87.3-83.1-87.3z m31.1 603.8c0 18.2-13.8 36.4-34.6 36.4H204c-17.3 0-34.6-14.6-34.6-36.4V454.5h612.2v356.4zM300.8 607.2c24.2 0 45-21.8 45-47.3 0-25.5-20.8-47.3-45-47.3s-45 21.8-45 47.3 20.8 47.3 45 47.3z m0 0" p-id="4034"></path></svg>