<?xml version="1.0" encoding="utf-8"?>
<!-- Generator: Adobe Illustrator 17.0.0, SVG Export Plug-In . SVG Version: 6.00 Build 0)  -->
<!DOCTYPE svg PUBLIC "-//W3C//DTD SVG 1.1//EN" "http://www.w3.org/Graphics/SVG/1.1/DTD/svg11.dtd">
<svg version="1.1" id="图层_1" xmlns="http://www.w3.org/2000/svg" xmlns:xlink="http://www.w3.org/1999/xlink" x="0px" y="0px"
	 width="270.313px" height="200px" viewBox="0 0 270.313 200" enable-background="new 0 0 270.313 200" xml:space="preserve">
<path d="M0,78.108c0.184-0.99,0.417-1.974,0.545-2.971c0.745-5.816,2.391-11.368,4.734-16.736c2.206-5.054,4.973-9.791,8.29-14.166
	c3.452-4.553,7.319-8.745,11.598-12.581c4.05-3.631,8.358-6.892,12.878-9.874c5.967-3.935,12.332-7.131,18.881-10
	c8.008-3.508,16.329-6.017,24.812-7.983c4.197-0.973,8.48-1.648,12.759-2.17c5.041-0.616,10.115-1.025,15.186-1.327
	c4.153-0.247,8.329-0.381,12.484-0.247c4.515,0.146,9.038,0.502,13.524,1.045c9.39,1.137,18.616,3.077,27.672,5.869
	c8.371,2.581,16.378,5.997,24.079,10.126c5.95,3.19,11.629,6.838,16.764,11.241c3.379,2.898,6.752,5.841,9.809,9.065
	c4.538,4.783,8.42,10.091,11.545,15.939c2.226,4.165,4.195,8.441,5.354,13.01c0.919,3.625,1.656,7.329,2.065,11.042
	c0.387,3.514,0.478,7.1,0.273,10.629c-0.343,5.929-1.666,11.701-3.783,17.263c-1.944,5.105-4.47,9.913-7.498,14.461
	c-3.915,5.882-8.623,11.098-13.847,15.799c-6.35,5.715-13.385,10.514-20.911,14.594c-5.937,3.22-12.109,5.877-18.443,8.193
	c-7.179,2.624-14.57,4.486-22.042,6c-3.807,0.772-7.692,1.191-11.558,1.625c-3.368,0.377-6.756,0.661-10.142,0.787
	c-5.038,0.187-10.091,0.402-15.124,0.229c-4.589-0.158-9.165-0.784-13.74-1.262c-8.911-0.93-17.582-2.999-26.17-5.494
	c-0.755-0.219-1.808,0.21-2.605,0.586c-2.774,1.311-5.4,2.993-8.262,4.046c-3.825,1.405-7.762,2.637-11.754,3.427
	c-4.361,0.862-8.829,1.273-13.271,1.615c-3.16,0.243-6.354,0.048-9.252,0.048c2.196-2.065,4.784-4.197,7.002-6.662
	c2.573-2.86,5.037-5.873,7.125-9.093c1.175-1.813,1.518-4.172,2.166-6.307c0.07-0.231-0.247-0.723-0.512-0.89
	c-5.138-3.231-10.07-6.732-14.596-10.796c-3.939-3.538-7.621-7.297-10.945-11.435c-3.488-4.342-6.478-8.985-8.859-13.992
	c-2.599-5.465-4.642-11.139-5.427-17.198C0.6,92.011,0.271,90.475,0,88.93C0,85.322,0,81.715,0,78.108z M116.64,153.889
	c0.001,0.13,0.003,0.258,0.004,0.388c2.621-0.129,5.247-0.187,7.861-0.401c4.714-0.385,9.444-0.695,14.123-1.351
	c4.433-0.621,8.873-1.402,13.194-2.551c5.483-1.458,10.957-3.079,16.234-5.145c5.255-2.055,10.383-4.522,15.343-7.221
	c5.316-2.892,10.353-6.308,14.783-10.482c3.228-3.042,6.523-6.064,9.367-9.45c3.843-4.574,6.9-9.707,9.199-15.269
	c1.961-4.745,3.314-9.669,3.601-14.761c0.217-3.858-0.093-7.774-0.491-11.631c-0.486-4.704-2.059-9.148-4.019-13.444
	c-2.607-5.717-6.078-10.893-10.286-15.522c-4.286-4.715-9.056-8.922-14.303-12.587c-6.942-4.849-14.348-8.841-22.243-11.837
	c-5.466-2.074-11.026-4.028-16.696-5.403c-6.107-1.481-12.374-2.345-18.604-3.248c-3.991-0.579-8.036-0.908-12.067-1.042
	c-3.935-0.131-7.891,0.001-11.823,0.247c-4.85,0.304-9.709,0.673-14.521,1.334c-4.562,0.627-9.135,1.41-13.58,2.59
	c-5.733,1.522-11.418,3.304-16.988,5.345c-6.535,2.394-12.713,5.604-18.605,9.335c-4.03,2.552-7.975,5.236-11.4,8.565
	c-3.378,3.284-6.798,6.566-9.812,10.173c-3.411,4.082-5.998,8.737-8.099,13.667c-2.121,4.976-3.53,10.136-3.832,15.493
	c-0.212,3.771,0.123,7.595,0.488,11.368c0.434,4.495,1.883,8.761,3.755,12.851c3.577,7.815,8.594,14.581,14.85,20.491
	c4.342,4.101,9.041,7.673,14.058,10.894c7.387,4.743,15.289,8.367,23.559,11.222c7.22,2.493,14.563,4.525,22.152,5.55
	c4.672,0.631,9.335,1.396,14.028,1.773C109.44,154.119,113.05,153.889,116.64,153.889z M270.287,128.258
	c-0.184,0.99-0.423,1.974-0.543,2.971c-0.5,4.139-1.697,8.095-3.168,11.97c-2.132,5.614-5.127,10.77-8.791,15.498
	c-3.88,5.007-8.184,9.643-13.312,13.428c-3.233,2.385-6.507,4.718-9.803,7.016c-0.639,0.446-0.727,0.786-0.615,1.557
	c0.581,4,2.797,7.087,5.344,10.011c1.431,1.643,2.825,3.327,4.367,4.86c1.503,1.494,3.175,2.82,4.802,4.244
	c-0.08,0.06-0.175,0.189-0.263,0.185c-5.141-0.254-10.32-0.213-15.414-0.852c-7.764-0.976-15.165-3.346-21.972-7.32
	c-1.395-0.815-2.663-0.703-4.186-0.323c-5.472,1.365-10.955,2.753-16.507,3.709c-4.902,0.844-9.892,1.299-14.862,1.599
	c-5.118,0.309-10.264,0.418-15.387,0.249c-4.193-0.138-8.373-0.781-12.552-1.255c-9.084-1.029-17.884-3.269-26.488-6.318
	c-7.799-2.765-15.259-6.234-22.228-10.72c-1.402-0.902-2.79-1.827-4.084-2.991c2.007,0.198,4.014,0.385,6.019,0.598
	c1.291,0.138,2.573,0.363,3.866,0.462c1.784,0.137,3.573,0.211,5.361,0.275c2.974,0.105,5.952,0.293,8.924,0.242
	c4.368-0.074,8.75-0.145,13.096-0.54c11.413-1.036,22.687-2.88,33.697-6.186c7.446-2.235,14.697-4.938,21.737-8.246
	c8.165-3.838,15.938-8.352,22.987-13.954c4.535-3.605,8.818-7.587,12.841-11.76c6.14-6.37,11.012-13.703,14.637-21.784
	c2.259-5.036,3.844-10.298,4.881-15.763c1.028-5.422,1.141-10.857,0.919-16.299c-0.137-3.381-0.892-6.738-1.394-10.275
	c0.977,0.733,1.987,1.349,2.827,2.147c3.195,3.035,6.438,6.029,9.47,9.222c4.138,4.356,7.4,9.362,10.048,14.751
	c2.546,5.178,4.338,10.607,5.193,16.329c0.162,1.081,0.366,2.157,0.551,3.235C270.287,121.572,270.287,124.915,270.287,128.258z
	 M82.326,83.638c0.339,9.248-7.902,17.232-17.465,16.894c-9.247-0.326-16.383-7.55-16.462-16.858
	c-0.082-9.582,7.454-17.249,17.32-17.124C74.849,66.667,82.474,74.016,82.326,83.638z M151.008,83.579
	c-0.148-9.459,7.47-17.126,17.061-17.03c9.329,0.094,16.866,7.348,16.869,17.053c0.003,9.093-7.191,17.323-17.845,16.915
	C158.733,100.198,150.725,93.064,151.008,83.579z M133.533,83.483c0.546,9.042-7.606,17.393-17.478,17.065
	c-8.385-0.279-16.972-7.543-16.308-18.16c0.524-8.385,7.548-15.944,17.203-15.842C125.881,66.641,133.878,74.044,133.533,83.483z"/>
</svg>
