<?xml version="1.0" encoding="utf-8"?>
<!-- Generator: Adobe Illustrator 17.0.0, SVG Export Plug-In . SVG Version: 6.00 Build 0)  -->
<!DOCTYPE svg PUBLIC "-//W3C//DTD SVG 1.1//EN" "http://www.w3.org/Graphics/SVG/1.1/DTD/svg11.dtd">
<svg version="1.1" id="图层_1" xmlns="http://www.w3.org/2000/svg" xmlns:xlink="http://www.w3.org/1999/xlink" x="0px" y="0px"
	 width="200px" height="200px" viewBox="0 0 200 200" enable-background="new 0 0 200 200" xml:space="preserve">
<path d="M187.396,91.789C183.256,47.316,145.537,12.5,99.988,12.5C51.67,12.5,12.5,51.676,12.5,100s39.17,87.5,87.488,87.5
	c7.922,0,14.342-6.422,14.342-14.344c0-5.875-3.547-10.938-8.605-13.146c-3.434-2.197-5.736-6.021-5.736-10.379
	c0-6.785,5.551-12.336,12.334-12.336h35.643v-0.033c20.912-0.334,37.971-16.639,39.432-37.262c0-0.641,0.014-1.273,0-1.912
	c0.008-0.32,0-0.635,0-0.957C187.396,95.316,187.629,93.541,187.396,91.789L187.396,91.789z M46.934,102.869
	c-8.713,0-15.777-7.064-15.777-15.779s7.064-15.779,15.777-15.779s15.775,7.064,15.775,15.779S55.646,102.869,46.934,102.869z
	 M75.619,62.705c-8.713,0-15.777-7.064-15.777-15.779s7.063-15.779,15.777-15.779s15.777,7.064,15.777,15.779
	S84.332,62.705,75.619,62.705z M124.383,62.705c-8.713,0-15.777-7.064-15.777-15.779s7.063-15.779,15.777-15.779
	s15.777,7.064,15.777,15.779S133.096,62.705,124.383,62.705z M153.066,102.869c-8.713,0-15.777-7.064-15.777-15.779
	s7.062-15.779,15.777-15.779s15.777,7.064,15.777,15.779S161.779,102.869,153.066,102.869L153.066,102.869z"/>
</svg>
