<?xml version="1.0" encoding="utf-8"?>
<!-- Generator: Adobe Illustrator 17.0.0, SVG Export Plug-In . SVG Version: 6.00 Build 0)  -->
<!DOCTYPE svg PUBLIC "-//W3C//DTD SVG 1.1//EN" "http://www.w3.org/Graphics/SVG/1.1/DTD/svg11.dtd">
<svg version="1.1" id="图层_1" xmlns="http://www.w3.org/2000/svg" xmlns:xlink="http://www.w3.org/1999/xlink" x="0px" y="0px"
	 width="200px" height="200px" viewBox="0 0 200 200" enable-background="new 0 0 200 200" xml:space="preserve">
<path d="M93.68,24.8c20.32,0,36.84,16.52,36.84,36.84c0,5.32-1.16,10.4-3.2,15H141c1.48-4.72,2.32-9.76,2.32-15
	c0-27.4-22.24-49.64-49.64-49.64S44.04,34.24,44.04,61.64c0,16.48,8.04,31.12,20.4,40.12C37.04,113.04,16.68,138,12,168.16h12.96
	c2.64-14.52,9.64-27.88,20.32-38.56c9.88-9.88,22.08-16.6,35.36-19.64c0.32-0.08,0.6-0.12,0.88-0.2V96.4
	c-14.36-5.04-24.68-18.72-24.68-34.8C56.84,41.32,73.36,24.8,93.68,24.8z"/>
<path d="M166.16,158.48l-42.88-42.88L188,93.76L166.16,158.48z"/>
<path d="M117.04,123.28l42.88,42.88L95.2,188L117.04,123.28z"/>
</svg>
