<?xml version="1.0" standalone="no"?><!DOCTYPE svg PUBLIC "-//W3C//DTD SVG 1.1//EN" "http://www.w3.org/Graphics/SVG/1.1/DTD/svg11.dtd"><svg t="1692868344660" class="icon" viewBox="0 0 1024 1024" version="1.1" xmlns="http://www.w3.org/2000/svg" p-id="14118" xmlns:xlink="http://www.w3.org/1999/xlink" width="200" height="200"><path d="M87.2 164.9c10.5-10.5 31.4-16.8 65-16.8h109v754.7H148c-29.3 2.1-50.3-4.2-62.9-14.7-10.5-10.5-12.6-25.2-12.6-52.4V647.1c0-10.5 2.1-18.9 6.3-25.2 4.2-6.3 12.6-8.4 23.1-10.5 4.2 0 10.5-2.1 18.9-4.2 18.9-8.4 33.5-23.1 41.9-39.8 6.3-10.5 8.4-23.1 8.4-37.7 0-23.1-6.3-41.9-21-54.5-14.7-12.6-27.3-21-44-23.1-12.6-2.1-21-6.3-25.2-10.5-6.3-6.3-8.4-14.7-8.4-25.2V223.6c0.1-27.2 4.3-46.1 14.7-58.7zM582 536v44h-67.1c-12.6 0-23.1 10.5-23.1 23.1 0 12.6 10.5 23.1 23.1 23.1H582v65c0 12.6 10.5 23.1 23.1 23.1 12.6 0 21-10.5 23.1-23.1v-65h65c12.6 0 21-8.4 23.1-23.1 0-12.6-10.5-23.1-23.1-23.1h-65v-44h65c12.6 0 21-8.4 23.1-23.1 0-12.6-10.5-23.1-23.1-23.1h-52.4l73.4-73.4c8.4-8.4 8.4-21 2.1-29.4l-2.3-2c-8.4-8.4-23.1-8.4-31.4 0l-73.4 73.4-4.2 4.2c0-2.1-2.1-2.1-4.2-4.2L527.4 385c-8.4-8.4-23.1-8.4-31.4 0-8.4 8.4-8.4 21-2.1 29.4l75.5 75.5h-58.7c-12.6 0-23.1 10.5-23.1 23.1 0 12.6 10.5 23.1 23.1 23.1H582z m316.5-132.1c-6.3 8.4-10.5 16.8-10.5 27.3 0 8.4 2.1 18.9 8.4 27.3 6.3 8.4 14.7 14.7 27.3 18.9 10.5 4.2 18.9 10.5 23.1 18.9 6.3 8.4 8.4 16.8 8.4 25.2 0 8.4-2.1 18.9-6.3 25.2-4.2 8.4-10.5 14.7-18.9 18.9-27.3 12.6-39.8 27.3-39.8 44-2.1 16.8 8.4 31.4 29.3 41.9 10.5 4.2 16.8 10.5 23.1 18.9 6.3 8.4 8.4 16.8 10.5 27.3 0 8.4-2.1 18.9-6.3 25.2-4.2 8.4-10.5 12.6-21 16.8-12.6 2.1-23.1 8.4-29.4 16.8-6.3 6.3-10.5 16.8-10.5 25.2 0 8.4 2.1 18.9 8.4 27.3 6.3 8.4 14.7 16.8 27.3 23.1 8.4 4.2 14.7 10.5 18.9 18.9 4.2 8.4 4.2 16.8 4.2 25.2-2.1 8.4-8.4 10.5-12.6 16.8-4.2 6.3-10.5 10.5-18.9 10.5h-610V148.2h618.4c8.4 0 14.7 2.1 21 10.5 4.2 6.3 6.3 14.7 8.4 21 0 8.4-2.1 16.8-6.3 25.2-4.2 8.4-12.6 14.7-21 16.8-8.4 2.1-16.8 8.4-23.1 14.7-6.3 6.3-8.4 14.7-10.5 23.1 0 8.4 2.1 16.8 6.3 25.2 6.3 8.4 14.7 14.7 27.3 18.9 8.4 4.2 16.8 10.5 23.1 18.9 6.3 8.4 2.1 18.9 4.2 27.3 0 8.4 4.2 14.7 0 23.1-4.2 8.4-12.6 12.6-23.1 16.8-12.6-0.5-23.1 5.8-29.4 14.2z m0 0" p-id="14119"></path></svg>