<?xml version="1.0" encoding="utf-8"?>
<!-- Generator: Adobe Illustrator 17.0.0, SVG Export Plug-In . SVG Version: 6.00 Build 0)  -->
<!DOCTYPE svg PUBLIC "-//W3C//DTD SVG 1.1//EN" "http://www.w3.org/Graphics/SVG/1.1/DTD/svg11.dtd">
<svg version="1.1" id="图层_1" xmlns="http://www.w3.org/2000/svg" xmlns:xlink="http://www.w3.org/1999/xlink" x="0px" y="0px"
	 width="200px" height="200px" viewBox="0 0 200 200" enable-background="new 0 0 200 200" xml:space="preserve">
<path d="M155.488,173.398H44.512c-13.555,0-24.59-11.035-24.59-24.59v-42.793c0-3.77,3.066-6.836,6.836-6.836
	s6.836,3.066,6.836,6.836v42.793c0,6.016,4.902,10.918,10.918,10.918h110.977c6.016,0,10.918-4.902,10.918-10.918v-42.793
	c0-3.77,3.066-6.836,6.836-6.836s6.836,3.066,6.836,6.836v42.793C180.078,162.363,169.043,173.398,155.488,173.398L155.488,173.398z
	"/>
<path d="M120.254,151.738H79.746c-3.77,0-6.836-3.066-6.836-6.836s3.066-6.836,6.836-6.836h40.508c3.77,0,6.836,3.066,6.836,6.836
	S124.023,151.738,120.254,151.738L120.254,151.738z M144.668,130.117H55.332c-3.77,0-6.836-3.066-6.836-6.836
	c0-3.77,3.066-6.836,6.836-6.836h89.336c3.77,0,6.836,3.066,6.836,6.836C151.504,127.051,148.437,130.117,144.668,130.117
	L144.668,130.117z M78.73,32.559L100,89.668c0.938,2.5-0.918,5.176-3.594,5.176h-3.027c-1.602,0-3.047-1.016-3.594-2.52
	l-4.609-12.656c-0.547-1.523-1.992-2.52-3.594-2.52H60.82c-1.621,0-3.047,1.016-3.594,2.539l-4.57,12.637
	c-0.547,1.523-1.992,2.539-3.594,2.539h-3.008c-2.676,0-4.531-2.676-3.594-5.176L63.77,32.578c0.566-1.504,1.992-2.5,3.594-2.5
	h7.773C76.738,30.059,78.164,31.055,78.73,32.559z M69.512,43.496L62.07,64.805c-0.664,1.875,0.742,3.848,2.734,3.848h12.93
	c1.992,0,3.379-1.953,2.734-3.848l-7.441-21.309C72.441,41.836,70.098,41.836,69.512,43.496z M160.039,61.914
	c0,6.738-1.25,12.598-3.77,17.559s-6.113,8.77-10.781,11.406c-4.668,2.637-10.098,3.965-16.289,3.965h-20.977
	c-1.602,0-2.891-1.289-2.891-2.891V32.969c0-1.602,1.289-2.891,2.891-2.891h18.848c10.723,0,18.906,2.715,24.531,8.145
	C157.227,43.633,160.039,51.523,160.039,61.914L160.039,61.914z M148.77,61.914c0-15.332-7.305-22.988-21.934-22.988h-7.5
	c-1.602,0-2.891,1.289-2.891,2.891v41.25c0,1.602,1.289,2.891,2.891,2.891h8.926c6.465,0,11.504-2.09,15.098-6.289
	C146.973,75.469,148.77,69.551,148.77,61.914z"/>
</svg>
