<?xml version="1.0" standalone="no"?><!DOCTYPE svg PUBLIC "-//W3C//DTD SVG 1.1//EN" "http://www.w3.org/Graphics/SVG/1.1/DTD/svg11.dtd"><svg t="1692868191020" class="icon" viewBox="0 0 1024 1024" version="1.1" xmlns="http://www.w3.org/2000/svg" p-id="10833" xmlns:xlink="http://www.w3.org/1999/xlink" width="200" height="200"><path d="M507.332919 1018.060079c-35.639528 0-64.702714-28.851046-64.702714-64.490574v-81.037498c0-35.639528 29.063186-64.490574 64.702714-64.490573h47.94365l93.34162-130.466128a128.238658 128.238658 0 0 1-54.095711-173.106278 128.238658 128.238658 0 0 1 173.106277-54.095711 128.238658 128.238658 0 0 1 0 227.201989l93.34162 130.466128h47.94365c35.639528 0 64.490574 28.851046 64.490574 64.490573v81.037498c0 35.639528-29.063186 64.490574-64.702714 64.490574H507.332919z m394.156205-71.915476v-66.824114H514.545681v66.824114h386.943443z m-128.981148-138.527449l-64.702714-90.15952-64.490574 90.15952h129.193288z m-64.066294-187.107521c31.184587-0.21214 56.217112-25.881086 56.004972-57.065672s-25.881086-56.217112-57.065672-56.004972a56.598964 56.598964 0 0 0-56.004972 57.065672 56.641392 56.641392 0 0 0 56.004972 56.004972h1.0607zM119.116636 973.722809c-35.639528 0-64.490574-28.851046-64.490574-64.490574V64.490574c0-35.639528 28.851046-64.490574 64.490574-64.490574h651.90636c35.639528 0 64.490574 28.851046 64.490574 64.490574v416.006629l-24.608246-26.093225a142.006547 142.006547 0 0 0-39.033768-29.063187l-8.061322-4.03066V71.491195H126.117257v830.316139h301.875285l-0.21214 71.915475H119.116636z m207.472964-570.656722c-13.789103 0-24.820385 11.243422-24.820385 24.820385 0 13.789103 11.243422 24.820385 24.820385 24.820385h99.705822v99.705822c0 13.789103 11.243422 24.820385 24.820385 24.820385s24.820385-11.243422 24.820385-24.820385v-99.705822H575.642014c13.789103 0 24.820385-11.243422 24.820385-24.820385 0-13.789103-11.243422-24.820385-24.820385-24.820385h-99.705822v-49.852911H575.642014c13.789103 0 24.820385-11.243422 24.820385-24.820385 0-13.789103-11.243422-24.820385-24.820385-24.820386h-99.069402l91.22022-88.886679a26.156868 26.156868 0 0 0-36.912368-36.912368l-79.340377 79.340377-79.340377-79.128237c-10.182722-11.031282-27.153926-11.667703-38.185208-1.69712-11.031282 10.182722-11.667703 27.153926-1.697121 38.185208 0.42428 0.63642 1.0607 1.0607 1.697121 1.69712l92.28092 86.977419h-99.705822c-13.789103 0-24.820385 11.031282-24.820385 24.820385 0 13.789103 11.031282 24.820385 24.820385 24.820386h99.705822v49.852911h-99.705822v0.42428z" p-id="10834"></path></svg>