<?xml version="1.0" encoding="utf-8"?>
<!-- Generator: Adobe Illustrator 17.0.0, SVG Export Plug-In . SVG Version: 6.00 Build 0)  -->
<!DOCTYPE svg PUBLIC "-//W3C//DTD SVG 1.1//EN" "http://www.w3.org/Graphics/SVG/1.1/DTD/svg11.dtd">
<svg version="1.1" id="图层_1" xmlns="http://www.w3.org/2000/svg" xmlns:xlink="http://www.w3.org/1999/xlink" x="0px" y="0px"
	 width="200px" height="200px" viewBox="0 0 200 200" enable-background="new 0 0 200 200" xml:space="preserve">
<path d="M21.931,90.732v69.993h66.18v17.947H11.162c-3.965,0-7.179-3.214-7.179-7.179V32.404c0-3.965,3.214-7.179,7.179-7.179
	h177.675c3.965,0,7.179,3.214,7.179,7.179v69.545h-17.947V90.732H21.931z M21.931,72.785h156.139V43.173H21.931V72.785z
	 M33.82,103.744c0-0.991,0.804-1.795,1.795-1.795h12.563c0.991,0,1.795,0.804,1.795,1.795v12.563c0,0.991-0.804,1.795-1.795,1.795
	H35.615c-0.991,0-1.795-0.804-1.795-1.795V103.744z M60.741,103.744c0-0.991,0.804-1.795,1.795-1.795h12.563
	c0.991,0,1.795,0.804,1.795,1.795v12.563c0,0.991-0.804,1.795-1.795,1.795H62.536c-0.991,0-1.795-0.804-1.795-1.795V103.744z
	 M89.456,101.949c-0.991,0-1.795,0.804-1.795,1.795v12.563c0,0.991,0.804,1.795,1.795,1.795h12.563c0.991,0,1.795-0.804,1.795-1.795
	v-12.563c0-0.991-0.804-1.795-1.795-1.795H89.456z M143.486,177.564c3.539,2.8,8.747,0.264,8.725-4.249l-0.075-15.396h42.029
	c0.991,0,1.795-0.804,1.795-1.795v-22.798c0-0.991-0.804-1.795-1.795-1.795h-42.158l-0.076-15.466
	c-0.022-4.483-5.193-6.977-8.715-4.204l-36.079,28.413c-2.353,2.353-2.334,6.186,0.042,8.562l11.329,8.963v0.118h0.15
	L143.486,177.564L143.486,177.564z"/>
</svg>
