<?xml version="1.0" encoding="utf-8"?>
<!-- Generator: Adobe Illustrator 17.0.0, SVG Export Plug-In . SVG Version: 6.00 Build 0)  -->
<!DOCTYPE svg PUBLIC "-//W3C//DTD SVG 1.1//EN" "http://www.w3.org/Graphics/SVG/1.1/DTD/svg11.dtd">
<svg version="1.1" id="图层_1" xmlns="http://www.w3.org/2000/svg" xmlns:xlink="http://www.w3.org/1999/xlink" x="0px" y="0px"
	 width="200px" height="200px" viewBox="0 0 200 200" enable-background="new 0 0 200 200" xml:space="preserve">
<path d="M118.75,0c10.355,0,18.75,8.395,18.75,18.75v37.5c0,10.355-8.395,18.75-18.75,18.75h-12.5v18.75H150
	c9.658,0,17.735,7.337,18.663,16.95l0.087,1.8V125h12.5c9.658,0,17.735,7.337,18.663,16.95l0.087,1.8v37.5
	c0,10.355-8.395,18.75-18.75,18.75l0,0h-37.5c-10.355,0-18.75-8.395-18.75-18.75l0,0v-37.5c0-10.355,8.395-18.75,18.75-18.75h12.5
	v-12.5c0.001-3.019-2.156-5.607-5.125-6.15l-1.125-0.1H50c-3.019-0.001-5.607,2.156-6.15,5.125l-0.1,1.125V125h12.5
	c9.658,0,17.735,7.337,18.662,16.95l0.088,1.8v37.5C75,191.605,66.605,200,56.25,200l0,0h-37.5C8.395,200,0,191.605,0,181.25l0,0
	v-37.5C0,133.395,8.395,125,18.75,125h12.5v-12.5c0-9.658,7.337-17.735,16.95-18.662L50,93.75h43.75V75h-12.5
	c-9.658,0-17.735-7.337-18.662-16.95l-0.088-1.8v-37.5C62.5,8.395,70.895,0,81.25,0H118.75z M56.25,137.5h-37.5
	c-3.452,0-6.25,2.798-6.25,6.25v37.5c0,3.452,2.798,6.25,6.25,6.25h37.5c3.452,0,6.25-2.798,6.25-6.25v-37.5
	C62.5,140.298,59.702,137.5,56.25,137.5z M181.25,137.5h-37.5c-3.452,0-6.25,2.798-6.25,6.25v37.5c0,3.452,2.798,6.25,6.25,6.25
	h37.5c3.452,0,6.25-2.798,6.25-6.25v-37.5C187.5,140.298,184.702,137.5,181.25,137.5z M118.75,12.5h-37.5
	c-3.452,0-6.25,2.798-6.25,6.25v37.5c0,3.452,2.798,6.25,6.25,6.25h37.5c3.452,0,6.25-2.798,6.25-6.25v-37.5
	C125,15.298,122.202,12.5,118.75,12.5z"/>
</svg>
