<?xml version="1.0" encoding="utf-8"?>
<!-- Generator: Adobe Illustrator 17.0.0, SVG Export Plug-In . SVG Version: 6.00 Build 0)  -->
<!DOCTYPE svg PUBLIC "-//W3C//DTD SVG 1.1//EN" "http://www.w3.org/Graphics/SVG/1.1/DTD/svg11.dtd">
<svg version="1.1" id="图层_1" xmlns="http://www.w3.org/2000/svg" xmlns:xlink="http://www.w3.org/1999/xlink" x="0px" y="0px"
	 width="200px" height="200px" viewBox="0 0 200 200" enable-background="new 0 0 200 200" xml:space="preserve">
<path d="M77.106,20.69c-22.403,0-40.475,18.644-40.475,41.537s18.072,41.537,40.475,41.537s40.475-18.644,40.475-41.537
	S99.509,20.69,77.106,20.69z M77.106,89.97c-14.687,0-26.682-12.374-26.682-27.744s11.995-27.744,26.682-27.744
	s26.682,12.374,26.682,27.744S91.793,89.97,77.106,89.97z M0.02,171.197c-0.301,4.001,2.865,7.413,6.877,7.413h140.418
	c4.013,0,7.178-3.412,6.877-7.414c-2.626-34.92-26.132-62.332-55.18-62.332H55.2C26.137,108.865,2.644,136.272,0.02,171.197z
	 M99.012,122.658c21.061,0,39.298,21.267,41.426,49.573l6.877-7.414H6.897l6.877,7.413c2.127-28.312,20.352-49.573,41.426-49.573
	H99.012z M193.104,51.826c3.809,0,6.897-3.088,6.897-6.897c0-3.809-3.088-6.897-6.897-6.897h-50.367
	c-3.809,0-6.897,3.088-6.897,6.897c0,3.809,3.088,6.897,6.897,6.897H193.104z M193.104,89.757c3.809,0,6.897-3.088,6.897-6.897
	s-3.088-6.897-6.897-6.897h-53.42c-3.809,0-6.897,3.088-6.897,6.897s3.088,6.897,6.897,6.897H193.104z M193.104,127.688
	c3.809,0,6.897-3.088,6.897-6.897c0-3.809-3.088-6.897-6.897-6.897h-41.21c-3.809,0-6.897,3.088-6.897,6.897
	c0,3.809,3.088,6.897,6.897,6.897H193.104z"/>
</svg>
