<?xml version="1.0" encoding="utf-8"?>
<!-- Generator: Adobe Illustrator 17.0.0, SVG Export Plug-In . SVG Version: 6.00 Build 0)  -->
<!DOCTYPE svg PUBLIC "-//W3C//DTD SVG 1.1//EN" "http://www.w3.org/Graphics/SVG/1.1/DTD/svg11.dtd">
<svg version="1.1" id="图层_1" xmlns="http://www.w3.org/2000/svg" xmlns:xlink="http://www.w3.org/1999/xlink" x="0px" y="0px"
	 width="200px" height="200px" viewBox="0 0 200 200" enable-background="new 0 0 200 200" xml:space="preserve">
<path d="M198.333,163.333L198.333,163.333c0,3.333-2.5,5.833-5.833,5.833h-45.833c3.333-0.833,5.833-4.167,5.833-7.5l0,0l0,0
	c0,0,0-27.5-20-38.333c-8.333-4.167-9.167-3.333-13.333-4.167V107.5c0,0-5-3.333-5.833-15c-3.333,0.833-4.167-3.333-4.167-6.667
	c0-2.5-1.667-10.833,1.667-10C110,70,109.167,65,110,62.5c0.833-9.167,10-19.167,24.167-20c16.667,0.833,22.5,10.833,23.333,20
	c0,2.5,0,7.5-0.833,13.333c3.333-0.833,1.667,7.5,1.667,10s-0.833,7.5-4.167,5.833c-1.667,11.667-5.833,15-5.833,15v11.667
	c0,0,3.333,1.667,15.833,6.667c12.5,5,8.333,1.667,19.167,6.667C198.333,140.833,198.333,163.333,198.333,163.333L198.333,163.333z
	 M106.667,122.5c14.167,5.833,9.167,1.667,20.833,7.5c18.333,9.167,18.333,33.333,18.333,33.333l0,0l0,0
	c0,3.333-3.333,6.667-6.667,6.667H8.333c-3.333,0-6.667-3.333-6.667-6.667l0,0l0,0c0,0,0-24.167,18.333-33.333
	c11.667-5.833,6.667-0.833,20.833-6.667c14.167-5.833,17.5-7.5,17.5-7.5V102.5c0,0-5-4.167-6.667-16.667
	c-3.333,0.833-4.167-4.167-4.167-6.667C46.667,75,45,65.833,48.333,66.667C47.5,60.833,47.5,55,47.5,52.5
	c0.833-10.833,10.833-21.667,25.833-21.667c18.333,0,25,10.833,26.667,21.667c0,3.333,0,8.333-0.833,14.167
	c4.167-0.833,2.5,8.333,1.667,11.667c0,3.333-1.667,7.5-4.167,6.667C95,97.5,90,101.667,90,101.667V115
	C89.167,115,92.5,116.667,106.667,122.5z"/>
</svg>
