<?xml version="1.0" encoding="utf-8"?>
<!-- Generator: Adobe Illustrator 17.0.0, SVG Export Plug-In . SVG Version: 6.00 Build 0)  -->
<!DOCTYPE svg PUBLIC "-//W3C//DTD SVG 1.1//EN" "http://www.w3.org/Graphics/SVG/1.1/DTD/svg11.dtd">
<svg version="1.1" id="图层_1" xmlns="http://www.w3.org/2000/svg" xmlns:xlink="http://www.w3.org/1999/xlink" x="0px" y="0px"
	 width="200px" height="200px" viewBox="0 0 200 200" enable-background="new 0 0 200 200" xml:space="preserve">
<path d="M173.111,42.655V26.889C173.111,15.352,163.759,6,152.222,6c0,0,0,0,0,0H47.778c-11.537,0-20.889,9.352-20.889,20.889
	c0,0,0,0,0,0V79.21C15.352,79.21,6,88.563,6,100.099l0,0v73.012C6,184.648,15.352,194,26.889,194l0,0h146.222
	c11.537,0,20.889-9.352,20.889-20.889l0,0V63.544C194,52.007,184.648,42.655,173.111,42.655
	C173.111,42.655,173.111,42.655,173.111,42.655z M42.555,26.889c0-2.877,2.345-5.222,5.222-5.222h104.444
	c2.878,0,5.222,2.345,5.222,5.222v15.766h-52.066c-5.855,0-10.601,4.746-10.601,10.601v24.388c0,0.865-0.701,1.567-1.567,1.567
	H42.555C42.555,79.21,42.555,26.889,42.555,26.889z M178.333,173.111c0,2.884-2.338,5.222-5.222,5.222l0,0H26.889
	c-2.884,0-5.222-2.338-5.222-5.222l0,0v-73.012c0-2.884,2.338-5.222,5.222-5.222h0h72.955c5.855,0,10.601-4.746,10.601-10.601l0,0
	V59.898c-0.001-0.87,0.704-1.576,1.575-1.577c0.001,0,0.002,0,0.002,0h61.09c2.877,0,5.222,2.345,5.222,5.222V173.111
	L178.333,173.111z"/>
</svg>
