<?xml version="1.0" standalone="no"?><!DOCTYPE svg PUBLIC "-//W3C//DTD SVG 1.1//EN" "http://www.w3.org/Graphics/SVG/1.1/DTD/svg11.dtd"><svg t="1692866858762" class="icon" viewBox="0 0 1024 1024" version="1.1" xmlns="http://www.w3.org/2000/svg" p-id="9701" xmlns:xlink="http://www.w3.org/1999/xlink" width="200" height="200"><path d="M559.6 119.6c17.7-4.1 35.7-6.6 54.2-6.6 169.8 0 307.4 178.1 307.4 397.7 0 219.7-137.6 397.8-307.4 397.8-18.5 0-36.6-2.5-54.2-6.6 143.8-33.2 253.1-195.5 253.1-391.2 0-195.6-109.3-357.9-253.1-391.1z m163.3 391.2c0 219.7-137.6 397.8-307.4 397.8-169.8 0-307.4-178.1-307.4-397.8 0-219.7 137.6-397.7 307.4-397.7 169.8 0 307.4 178 307.4 397.7z m-169.4-74.7l-127.6 6.6 120.2-161.4-87.4 12.9-85.4 120.5-79.7-96.2-63.7 9.4L324.3 448l-93.5 4.9v49.7l113.7-1.6v62.7l-113.7-3.4V610l113.7 7.7v113.6l61.3 9.1V621.9l147.8 10V570l-147.8-4.4v-65.4l147.8-2.1v-62z" p-id="9702"></path></svg>