<?xml version="1.0" encoding="utf-8"?>
<!-- Generator: Adobe Illustrator 17.0.0, SVG Export Plug-In . SVG Version: 6.00 Build 0)  -->
<!DOCTYPE svg PUBLIC "-//W3C//DTD SVG 1.1//EN" "http://www.w3.org/Graphics/SVG/1.1/DTD/svg11.dtd">
<svg version="1.1" id="图层_1" xmlns="http://www.w3.org/2000/svg" xmlns:xlink="http://www.w3.org/1999/xlink" x="0px" y="0px"
	 width="200px" height="200px" viewBox="0 0 200 200" enable-background="new 0 0 200 200" xml:space="preserve">
<path d="M90.457,99h-23c-0.66-0.06-1.146-0.644-1.086-1.304c0.053-0.576,0.509-1.033,1.086-1.086h23
	c0.66,0.06,1.146,0.644,1.086,1.304C91.49,98.491,91.033,98.947,90.457,99z M90.457,161.18h-50.78
	c-3.936-0.005-7.125-3.195-7.13-7.13v-32.49c0-0.657,0.533-1.19,1.19-1.19c0.657,0,1.19,0.533,1.19,1.19v32.49
	c0,2.623,2.127,4.75,4.75,4.75h0h50.78c0.657,0.001,1.189,0.535,1.188,1.192C91.643,160.648,91.112,161.179,90.457,161.18z"/>
<path d="M93.297,80.11h100.93c3.833,0,5.75,1.917,5.75,5.75V110c0,3.833-1.917,5.75-5.75,5.75H93.297c-3.833,0-5.75-1.917-5.75-5.75
	V85.86C87.547,82.027,89.464,80.11,93.297,80.11z"/>
<path d="M93.297,137.45h100.93c3.833,0,5.75,1.917,5.75,5.75v24.14c0,3.833-1.917,5.75-5.75,5.75H93.297
	c-3.833,0-5.75-1.917-5.75-5.75V143.2C87.547,139.367,89.464,137.45,93.297,137.45z"/>
<path d="M33.737,79.13c-0.657,0-1.19-0.533-1.19-1.19V45.45c0.005-3.936,3.195-7.125,7.13-7.13h50.78c0.657,0,1.19,0.533,1.19,1.19
	c0,0.657-0.533,1.19-1.19,1.19l0,0h-50.78c-2.623,0-4.75,2.127-4.75,4.75v32.49C34.927,78.597,34.394,79.13,33.737,79.13z"/>
<path d="M93.297,22.85h100.93c3.833,0,5.75,1.917,5.75,5.75v24.14c0,3.833-1.917,5.75-5.75,5.75H93.297
	c-3.833,0-5.75-1.917-5.75-5.75V28.6C87.547,24.767,89.464,22.85,93.297,22.85z"/>
<path d="M28.787,120l-27.58-19.8c-1.328-0.99-1.602-2.87-0.612-4.198c0.173-0.232,0.379-0.438,0.612-0.612l27.58-19.77
	c2.959-2.12,6.941-2.12,9.9,0l27.58,19.77c1.328,0.99,1.602,2.87,0.612,4.198c-0.173,0.232-0.379,0.438-0.612,0.612L38.687,120
	C35.727,122.12,31.746,122.12,28.787,120L28.787,120z"/>
</svg>
