<?xml version="1.0" encoding="utf-8"?>
<!-- Generator: Adobe Illustrator 17.0.0, SVG Export Plug-In . SVG Version: 6.00 Build 0)  -->
<!DOCTYPE svg PUBLIC "-//W3C//DTD SVG 1.1//EN" "http://www.w3.org/Graphics/SVG/1.1/DTD/svg11.dtd">
<svg version="1.1" id="图层_1" xmlns="http://www.w3.org/2000/svg" xmlns:xlink="http://www.w3.org/1999/xlink" x="0px" y="0px"
	 width="200px" height="200px" viewBox="0 0 200 200" enable-background="new 0 0 200 200" xml:space="preserve">
<path d="M135.996,181.25c-11.992-0.039-23.281-4.727-31.758-13.203c-8.496-8.496-13.184-19.766-13.223-31.777
	C91.094,161.035,111.23,181.172,135.996,181.25L135.996,181.25z M136.25,181.25c24.785-0.078,44.922-20.215,45-44.98
	c-0.039,12.012-4.727,23.281-13.223,31.777C159.531,176.523,148.262,181.211,136.25,181.25z M181.25,136.133
	c0-24.883-20.254-45.117-45.137-45.117c-24.863,0-45.098,20.234-45.098,45.117c0-24.883,20.234-45.117,45.098-45.117
	C160.996,91.016,181.25,111.25,181.25,136.133z"/>
<path d="M136.113,84.766c-28.301,0-51.348,23.047-51.348,51.367c0,13.73,5.352,26.621,15.039,36.328
	c9.707,9.707,22.598,15.039,36.309,15.039c13.73,0,26.621-5.332,36.328-15.039s15.059-22.598,15.059-36.328
	C187.5,107.813,164.453,84.766,136.113,84.766z M136.113,175c-21.426,0-38.848-17.441-38.848-38.867s17.422-38.867,38.848-38.867
	c21.445,0,38.887,17.441,38.887,38.867S157.559,175,136.113,175z"/>
<path d="M135.996,181.25c-11.992-0.039-23.281-4.727-31.758-13.203c-8.496-8.496-13.184-19.766-13.223-31.777
	C91.094,161.035,111.23,181.172,135.996,181.25L135.996,181.25z M136.25,181.25c24.785-0.078,44.922-20.215,45-44.98
	c-0.039,12.012-4.727,23.281-13.223,31.777C159.531,176.523,148.262,181.211,136.25,181.25z M181.25,136.133
	c0-24.883-20.254-45.117-45.137-45.117c-24.863,0-45.098,20.234-45.098,45.117c0-24.883,20.234-45.117,45.098-45.117
	C160.996,91.016,181.25,111.25,181.25,136.133z"/>
<path d="M136.113,84.766c-28.301,0-51.348,23.047-51.348,51.367c0,13.73,5.352,26.621,15.039,36.328
	c9.707,9.707,22.598,15.039,36.309,15.039c13.73,0,26.621-5.332,36.328-15.039s15.059-22.598,15.059-36.328
	C187.5,107.813,164.453,84.766,136.113,84.766z M136.113,175c-21.426,0-38.848-17.441-38.848-38.867s17.422-38.867,38.848-38.867
	c21.445,0,38.887,17.441,38.887,38.867S157.559,175,136.113,175z"/>
<path d="M129.473,157.715l-1.387-1.367l-19.629-19.609l8.828-8.848l12.168,12.168l25.527-25.508l8.828,8.848L129.473,157.715z"/>
<path d="M18.75,18.75H150H18.75l8.75,8.75L18.75,18.75z"/>
<path d="M150,12.5H18.75c-2.52,0-4.805,1.523-5.781,3.867s-0.43,5.02,1.348,6.816l48.652,48.652V150c0,3.457,2.793,6.25,6.25,6.25
	h6.25c-2.137-6.492-3.225-13.283-3.223-20.117c0-6.992,1.133-13.711,3.223-20.02V69.238c0-1.66-0.664-3.242-1.836-4.414L33.848,25
	h101.074L95.098,64.805c-1.172,1.172-1.836,2.754-1.836,4.414v19.59c3.789-3.438,7.969-6.406,12.5-8.867v-8.125l48.652-48.652
	c1.797-1.797,2.324-4.473,1.348-6.816C154.805,14.023,152.52,12.5,150,12.5z"/>
</svg>
