<?xml version="1.0" encoding="utf-8"?>
<!-- Generator: Adobe Illustrator 17.0.0, SVG Export Plug-In . SVG Version: 6.00 Build 0)  -->
<!DOCTYPE svg PUBLIC "-//W3C//DTD SVG 1.1//EN" "http://www.w3.org/Graphics/SVG/1.1/DTD/svg11.dtd">
<svg version="1.1" id="图层_1" xmlns="http://www.w3.org/2000/svg" xmlns:xlink="http://www.w3.org/1999/xlink" x="0px" y="0px"
	 width="200px" height="200px" viewBox="0 0 200 200" enable-background="new 0 0 200 200" xml:space="preserve">
<path d="M129.883,15.82v20.508H72.07V15.82H129.883 M133.789,0.195H68.164c-6.465,0-11.719,5.254-11.719,11.719v28.32
	c0,6.465,5.254,11.719,11.719,11.719h65.625c6.465,0,11.719-5.254,11.719-11.719v-28.32C145.508,5.449,140.254,0.195,133.789,0.195z
	 M58.301,134.57c-7.266,0-13.184-5.918-13.184-13.184s5.918-13.184,13.184-13.184s13.184,5.918,13.184,13.184
	S65.566,134.57,58.301,134.57z M58.301,118.945c-1.348,0-2.441,1.094-2.441,2.441s1.094,2.441,2.441,2.441s2.441-1.094,2.441-2.441
	S59.648,118.945,58.301,118.945z M58.301,172.656c-7.266,0-13.184-5.918-13.184-13.184s5.918-13.184,13.184-13.184
	s13.184,5.918,13.184,13.184S65.566,172.656,58.301,172.656z M58.301,157.031c-1.348,0-2.441,1.094-2.441,2.441
	s1.094,2.441,2.441,2.441s2.441-1.094,2.441-2.441S59.648,157.031,58.301,157.031z M125.391,129.102H93.164
	c-4.316,0-7.813-3.496-7.813-7.813s3.496-7.813,7.813-7.813h32.227c4.316,0,7.813,3.496,7.813,7.813
	S129.707,129.102,125.391,129.102z M148.828,167.773H93.164c-4.316,0-7.813-3.496-7.813-7.813s3.496-7.813,7.813-7.813h55.664
	c4.316,0,7.813,3.496,7.813,7.813S153.145,167.773,148.828,167.773z M148.828,91.602H93.164c-4.316,0-7.813-3.496-7.813-7.813
	s3.496-7.813,7.813-7.813h55.664c4.316,0,7.813,3.496,7.813,7.813S153.145,91.602,148.828,91.602z"/>
<path d="M168.555,34.57v149.805H33.398V34.57h23.047v1.758c0,8.633,6.992,15.625,15.625,15.625h57.813
	c8.633,0,15.625-6.992,15.625-15.625V34.57H168.555 M172.461,18.945h-42.578v17.383H72.07V18.945H29.492
	c-6.465,0-11.719,5.254-11.719,11.719v157.617c0,6.465,5.254,11.719,11.719,11.719h142.969c6.465,0,11.719-5.254,11.719-11.719
	V30.664C184.18,24.199,178.926,18.945,172.461,18.945z"/>
<path d="M58.359,96.406c-1.992,0-3.984-0.762-5.508-2.266l-6.992-6.953c-3.066-3.047-3.086-7.988-0.039-11.055
	c3.047-3.066,7.988-3.086,11.055-0.039l1.484,1.484L68.516,67.5c3.066-3.047,8.008-3.027,11.055,0.039
	c3.047,3.066,3.027,8.008-0.039,11.055L63.867,94.141C62.344,95.645,60.352,96.406,58.359,96.406z"/>
</svg>
