<?xml version="1.0" encoding="utf-8"?>
<!-- Generator: Adobe Illustrator 17.0.0, SVG Export Plug-In . SVG Version: 6.00 Build 0)  -->
<!DOCTYPE svg PUBLIC "-//W3C//DTD SVG 1.1//EN" "http://www.w3.org/Graphics/SVG/1.1/DTD/svg11.dtd">
<svg version="1.1" id="图层_1" xmlns="http://www.w3.org/2000/svg" xmlns:xlink="http://www.w3.org/1999/xlink" x="0px" y="0px"
	 width="200px" height="200px" viewBox="0 0 200 200" enable-background="new 0 0 200 200" xml:space="preserve">
<path d="M172.917,8.333h-137.5C29.666,8.34,25.006,13,25,18.75v162.5c0.006,5.75,4.666,10.41,10.417,10.417h137.5
	c5.75-0.006,10.41-4.666,10.417-10.417V18.75C183.327,13,178.667,8.34,172.917,8.333z M58.333,45.833
	c-0.002-2.301,1.862-4.168,4.163-4.17c1.268-0.001,2.467,0.575,3.258,1.566l25.911,32.393V45.833
	c0.001-2.301,1.868-4.166,4.169-4.164c2.299,0.001,4.163,1.865,4.164,4.164V87.5c0.002,2.301-1.862,4.168-4.163,4.17
	c-1.268,0.001-2.467-0.575-3.258-1.566L66.667,57.711V87.5c-0.001,2.301-1.868,4.166-4.169,4.164
	c-2.299-0.001-4.163-1.865-4.164-4.164L58.333,45.833z M145.833,158.333H62.5c-2.301,0-4.167-1.865-4.167-4.167
	c0-2.301,1.865-4.167,4.167-4.167h83.333c2.301,0,4.167,1.865,4.167,4.167C150,156.468,148.135,158.333,145.833,158.333z
	 M145.833,125H62.5c-2.301,0-4.167-1.865-4.167-4.167c0-2.301,1.865-4.167,4.167-4.167h83.333c2.301,0,4.167,1.865,4.167,4.167
	C150,123.135,148.135,125,145.833,125z M145.833,83.333h-25c-2.301-0.001-4.166-1.868-4.164-4.169
	c0.001-2.299,1.865-4.163,4.164-4.164h25c2.301,0.001,4.166,1.868,4.164,4.169C149.996,81.468,148.133,83.332,145.833,83.333
	L145.833,83.333z M145.833,50h-25c-2.301,0-4.167-1.865-4.167-4.167c0-2.301,1.865-4.167,4.167-4.167l0,0h25
	c2.301,0,4.167,1.865,4.167,4.167C150,48.135,148.135,50,145.833,50L145.833,50z"/>
</svg>
