<?xml version="1.0" encoding="utf-8"?>
<!-- Generator: Adobe Illustrator 17.0.0, SVG Export Plug-In . SVG Version: 6.00 Build 0)  -->
<!DOCTYPE svg PUBLIC "-//W3C//DTD SVG 1.1//EN" "http://www.w3.org/Graphics/SVG/1.1/DTD/svg11.dtd">
<svg version="1.1" id="图层_1" xmlns="http://www.w3.org/2000/svg" xmlns:xlink="http://www.w3.org/1999/xlink" x="0px" y="0px"
	 width="209.57px" height="200px" viewBox="0 0 209.57 200" enable-background="new 0 0 209.57 200" xml:space="preserve">
<path d="M172.224,0H37.416C16.757,0.014,0.014,16.757,0,37.416v125.168C0.014,183.243,16.757,199.986,37.416,200h134.807
	c20.653-0.027,37.389-16.763,37.416-37.416V37.416C209.612,16.763,192.877,0.027,172.224,0z M177.043,65.193h15.528v11.826h-15.528
	c-4.706-0.002-8.523,3.812-8.525,8.518c-0.002,4.706,3.812,8.523,8.518,8.525c0.002,0,0.004,0,0.007,0h15.528v11.826h-15.528
	c-4.713-0.254-8.74,3.36-8.995,8.074c-0.254,4.713,3.36,8.74,8.074,8.995c0.307,0.017,0.614,0.017,0.921,0h15.528v11.826h-15.528
	c-4.706,0-8.522,3.815-8.522,8.522s3.815,8.522,8.522,8.522h15.528v10.733c0,11.242-9.106,20.359-20.348,20.373H37.416
	c-11.246-0.014-20.359-9.127-20.373-20.373v-10.708h15.553c4.706,0,8.522-3.815,8.522-8.522s-3.815-8.522-8.522-8.522H17.043
	v-11.826h15.553c4.713-0.254,8.328-4.281,8.074-8.995c-0.235-4.358-3.716-7.838-8.074-8.074H17.043V94.087h15.553
	c4.706,0.002,8.523-3.812,8.525-8.518s-3.812-8.523-8.518-8.525c-0.002,0-0.004,0-0.007,0H17.043V65.193h15.553
	c4.706,0.002,8.523-3.812,8.525-8.518s-3.812-8.523-8.518-8.525c-0.002,0-0.004,0-0.007,0H17.043V37.416
	c0.014-11.246,9.127-20.359,20.373-20.373h134.807c11.242,0.014,20.348,9.131,20.348,20.373v10.733h-15.528
	c-4.706-0.002-8.523,3.812-8.525,8.518c-0.002,4.706,3.812,8.523,8.518,8.525C177.039,65.193,177.041,65.193,177.043,65.193
	L177.043,65.193z"/>
<path d="M140.273,85.366L94.584,55.553c-4.523-3.112-10.399-3.457-15.255-0.894c-5.453,3.193-8.723,9.113-8.522,15.429v59.627
	c-0.179,6.388,3.16,12.36,8.696,15.553c2.13,1.176,4.524,1.791,6.957,1.789c2.98,0,5.897-0.863,8.398-2.484l45.292-29.814
	c4.985-3.308,7.943-8.925,7.851-14.907C148.082,94.016,145.165,88.548,140.273,85.366L140.273,85.366z M130.832,99.801
	c0.039,0.188,0.039,0.383,0,0.571l-42.981,28.224V71.453l42.957,28.099C130.832,99.633,130.841,99.718,130.832,99.801
	L130.832,99.801z"/>
</svg>
