<?xml version="1.0" encoding="utf-8"?>
<!-- Generator: Adobe Illustrator 17.0.0, SVG Export Plug-In . SVG Version: 6.00 Build 0)  -->
<!DOCTYPE svg PUBLIC "-//W3C//DTD SVG 1.1//EN" "http://www.w3.org/Graphics/SVG/1.1/DTD/svg11.dtd">
<svg version="1.1" id="图层_1" xmlns="http://www.w3.org/2000/svg" xmlns:xlink="http://www.w3.org/1999/xlink" x="0px" y="0px"
	 width="200px" height="200px" viewBox="0 0 200 200" enable-background="new 0 0 200 200" xml:space="preserve">
<path d="M37.402,167.305h79.98c-0.02-0.41-0.02-0.801-0.02-1.211c0-19.414,15.723-35.137,35.137-35.137
	c0.898,0,1.777,0.039,2.656,0.098c-2.832-3.613-6.367-6.914-10.098-7.383c-9.922-1.23-21.113,13.047-21.113,13.047
	s-9.492,10.234-19.57,11.816c-10.117,1.582-20.82-5.469-20.82-5.469s-17.402-9.902-27.148-7.07
	c-11.211,3.262-21.27,12.324-27.07,18.418v4.805C29.336,163.691,32.949,167.305,37.402,167.305z"/>
<path d="M158.555,78.457H33.379c-8.926,0-16.152,7.227-16.152,16.152v68.652c0,8.926,7.227,16.152,16.152,16.152H120
	c-0.762-1.855-1.367-3.77-1.797-5.762c-0.449-2.051-0.723-4.18-0.801-6.348h-80c-4.453,0-8.086-3.613-8.086-8.086V98.652
	c0-4.453,3.613-8.066,8.086-8.066h117.109c4.453,0,8.086,3.613,8.086,8.066v33.789c4.473,1.348,8.574,3.555,12.109,6.445V94.629
	C174.707,85.684,167.48,78.457,158.555,78.457z"/>
<path d="M86.27,101.094c6.914,0,12.52,5.605,12.52,12.52c0,6.914-5.605,12.52-12.52,12.52s-12.52-5.605-12.52-12.52
	C73.75,106.68,79.355,101.094,86.27,101.094z M156.816,78.77h-9.219l-47.305-39.531l4.746-4.902L156.816,78.77z M35.098,78.77h9.238
	l47.305-39.531l-4.766-4.902L35.098,78.77z"/>
<path d="M95.957,20.586c5.957,0,10.762,4.824,10.762,10.762s-4.824,10.762-10.762,10.762c-5.957,0-10.781-4.824-10.781-10.762
	C85.195,25.391,90.02,20.586,95.957,20.586z M134.316,156.621h48.457v16.152h-48.457V156.621z"/>
</svg>
