<?xml version="1.0" encoding="utf-8"?>
<!-- Generator: Adobe Illustrator 17.0.0, SVG Export Plug-In . SVG Version: 6.00 Build 0)  -->
<!DOCTYPE svg PUBLIC "-//W3C//DTD SVG 1.1//EN" "http://www.w3.org/Graphics/SVG/1.1/DTD/svg11.dtd">
<svg version="1.1" id="图层_1" xmlns="http://www.w3.org/2000/svg" xmlns:xlink="http://www.w3.org/1999/xlink" x="0px" y="0px"
	 width="200px" height="200px" viewBox="0 0 200 200" enable-background="new 0 0 200 200" xml:space="preserve">
<path d="M55.385,173.516H35.742v-58.215c0-2.143,1.787-4.105,3.928-4.105h11.785c2.143,0,3.928,1.787,3.928,4.105L55.385,173.516z
	 M92.99,173.557H73.348V90.344c0-2.322,1.787-4.287,3.928-4.287h11.785c2.143,0,3.928,1.965,3.928,4.287L92.99,173.557
	L92.99,173.557z"/>
<path d="M183.396,184.664H13.945V34.85c0-3.066,2.482-5.549,5.549-5.549s5.549,2.482,5.549,5.549v138.717h158.354
	c3.066,0,5.549,2.482,5.549,5.549C188.945,182.182,186.463,184.664,183.396,184.664L183.396,184.664z"/>
<path d="M131.777,173.607h-19.643v-36.785c0-2.322,1.787-4.285,3.928-4.285h11.785c2.143,0,3.928,1.963,3.928,4.285L131.777,173.607
	z M170.227,173.516h-19.643v-58.215c0-2.143,1.787-4.105,3.928-4.105h11.785c2.143,0,3.928,1.787,3.928,4.105v58.215H170.227z
	 M121.955,20.281c-21.414,0-38.84,17.426-38.84,38.84c0,16.408,10.387,31.123,25.848,36.617c0.629,0.217,1.262,0.422,1.842,0.596
	c0.754,0.217,1.518,0.422,2.287,0.607l8.508,8.508l10.805-8.908c16.787-4.66,28.395-19.865,28.395-37.422
	C160.797,37.709,143.369,20.281,121.955,20.281L121.955,20.281z M141.492,34.914L131.711,52.1h7.246
	c0.468-0.004,0.851,0.372,0.855,0.84c0,0.005,0,0.01,0,0.016v6.014c0.004,0.468-0.372,0.851-0.84,0.855c-0.005,0-0.01,0-0.016,0
	h-11.303v4.434h11.287c0.468-0.004,0.851,0.372,0.855,0.84c0,0.005,0,0.01,0,0.016v6.014c0.004,0.468-0.372,0.851-0.84,0.855
	c-0.005,0-0.01,0-0.016,0h-11.287v11.592c0.004,0.468-0.372,0.851-0.84,0.855c-0.005,0-0.01,0-0.016,0h-9.375
	c-0.468,0.004-0.851-0.372-0.855-0.84c0-0.005,0-0.01,0-0.016V72.012h-10.91c-0.468,0.004-0.851-0.372-0.855-0.84
	c0-0.005,0-0.01,0-0.016v-6.014c0-0.477,0.377-0.855,0.855-0.855h10.91v-4.434h-10.91c-0.468,0.004-0.851-0.372-0.855-0.84
	c0-0.005,0-0.01,0-0.016v-6.014c0-0.492,0.377-0.869,0.855-0.869h6.607l-9.797-17.199c-0.305-0.566,0.102-1.275,0.754-1.275h10.998
	l8.057,15.49l8.027-15.49h10.434C141.391,33.639,141.812,34.334,141.492,34.914L141.492,34.914z"/>
</svg>
