<?xml version="1.0" encoding="utf-8"?>
<!-- Generator: Adobe Illustrator 17.0.0, SVG Export Plug-In . SVG Version: 6.00 Build 0)  -->
<!DOCTYPE svg PUBLIC "-//W3C//DTD SVG 1.1//EN" "http://www.w3.org/Graphics/SVG/1.1/DTD/svg11.dtd">
<svg version="1.1" id="图层_1" xmlns="http://www.w3.org/2000/svg" xmlns:xlink="http://www.w3.org/1999/xlink" x="0px" y="0px"
	 width="201.758px" height="200px" viewBox="0 0 201.758 200" enable-background="new 0 0 201.758 200" xml:space="preserve">
<path d="M88.879,104.464l-79-37.571c-7.357-2.85-11.011-11.124-8.162-18.481c1.451-3.748,4.414-6.71,8.162-8.162l79-37.571
	c7.632-3.545,16.439-3.545,24.071,0l79,37.571c7.357,2.85,11.011,11.124,8.162,18.481c-1.451,3.748-4.414,6.71-8.162,8.162
	l-79,37.571C105.318,108.009,96.511,108.009,88.879,104.464z"/>
<path d="M100.914,154.714c-5.747,0.002-11.417-1.318-16.571-3.857l-77.5-38.5c-5.518-2.138-8.257-8.344-6.119-13.862
	s8.344-8.257,13.862-6.119c0.611,0.237,1.199,0.529,1.757,0.874l77.429,38.5c4.51,2.189,9.775,2.189,14.286,0l77.5-38.5
	c5.035-3.109,11.637-1.547,14.745,3.488c3.109,5.035,1.547,11.637-3.488,14.745c-0.558,0.344-1.146,0.637-1.757,0.874l-77.571,38.5
	C112.332,153.4,106.661,154.72,100.914,154.714z"/>
<path d="M100.914,200c-5.747,0.006-11.418-1.314-16.571-3.857l-77.5-38.5c-5.518-2.138-8.257-8.344-6.119-13.862
	s8.344-8.257,13.862-6.119c0.611,0.237,1.199,0.529,1.757,0.874l77.429,38.5c4.501,2.227,9.784,2.227,14.286,0l77.5-38.5
	c5.035-3.109,11.637-1.547,14.745,3.488c3.109,5.035,1.547,11.637-3.488,14.745c-0.558,0.344-1.146,0.637-1.757,0.874l-77.571,38.5
	C112.332,198.686,106.661,200.006,100.914,200z"/>
</svg>
