<?xml version="1.0" encoding="utf-8"?>
<!-- Generator: Adobe Illustrator 17.0.0, SVG Export Plug-In . SVG Version: 6.00 Build 0)  -->
<!DOCTYPE svg PUBLIC "-//W3C//DTD SVG 1.1//EN" "http://www.w3.org/Graphics/SVG/1.1/DTD/svg11.dtd">
<svg version="1.1" id="图层_1" xmlns="http://www.w3.org/2000/svg" xmlns:xlink="http://www.w3.org/1999/xlink" x="0px" y="0px"
	 width="200px" height="200px" viewBox="0 0 200 200" enable-background="new 0 0 200 200" xml:space="preserve">
<path d="M44.57,176.095c-4.142,0-7.5-3.358-7.5-7.5l0,0V64.3c-0.002-4.142,3.353-7.502,7.496-7.504
	c4.142-0.002,7.502,3.353,7.504,7.496c0,0.003,0,0.006,0,0.009v104.29c0.003,4.142-3.353,7.502-7.495,7.505
	C44.573,176.095,44.572,176.095,44.57,176.095z M116.655,92.29h-43.9c-2.761,0-5-2.239-5-5l0,0V45.625c0-2.761,2.239-5,5-5l0,0h43.9
	c2.761,0,5,2.239,5,5V87.29C121.655,90.051,119.416,92.29,116.655,92.29z M77.755,82.29h33.9V50.625h-33.9
	C77.755,50.625,77.755,82.29,77.755,82.29z M153.86,113.815H72.755c-2.761,0-5-2.239-5-5c0-2.761,2.239-5,5-5l0,0h81.105
	c2.761,0,5,2.239,5,5C158.86,111.576,156.621,113.815,153.86,113.815z M153.86,134.65H72.755c-2.761,0-5-2.239-5-5
	c0-2.761,2.239-5,5-5l0,0h81.105c2.761,0,5,2.239,5,5C158.86,132.411,156.621,134.65,153.86,134.65z M153.86,61.635h-15.94
	c-2.761,0-5-2.239-5-5s2.239-5,5-5l0,0h15.94c2.761,0,5,2.239,5,5S156.621,61.635,153.86,61.635z M153.86,82.47h-15.94
	c-2.761,0-5-2.239-5-5c0-2.761,2.239-5,5-5l0,0h15.94c2.761,0,5,2.239,5,5C158.86,80.231,156.621,82.47,153.86,82.47z
	 M153.86,155.485H72.755c-2.761,0-5-2.239-5-5c0-2.761,2.239-5,5-5l0,0h81.105c2.761,0,5,2.239,5,5
	C158.86,153.246,156.621,155.485,153.86,155.485z"/>
<path d="M166.83,193.785H33.165c-8.223,0.012-15.555-5.173-18.285-12.93c-0.736-1.709-1.117-3.549-1.12-5.41V72.815
	c0-8.98,8.525-16.015,19.405-16.015h3.9V25.62C37.076,14.907,45.757,6.226,56.47,6.215h110.36
	c10.713,0.011,19.396,8.692,19.41,19.405v148.76C186.226,185.093,177.543,193.774,166.83,193.785L166.83,193.785z M28.76,175.15
	l0.23,0.61c0.592,1.803,2.277,3.022,4.175,3.02H166.83c2.432-0.003,4.404-1.973,4.41-4.405V25.62
	c-0.006-2.432-1.978-4.402-4.41-4.405H56.47c-2.432,0.003-4.402,1.973-4.405,4.405V71.8h-18.9c-2.435,0-3.955,0.92-4.405,1.385
	V175.15z"/>
</svg>
