<?xml version="1.0" standalone="no"?><!DOCTYPE svg PUBLIC "-//W3C//DTD SVG 1.1//EN" "http://www.w3.org/Graphics/SVG/1.1/DTD/svg11.dtd"><svg t="1692940529886" class="icon" viewBox="0 0 1405 1024" version="1.1" xmlns="http://www.w3.org/2000/svg" p-id="43381" xmlns:xlink="http://www.w3.org/1999/xlink" width="274.4140625" height="200"><path d="M43.886 437.6c6.758-7.403 12.522-16.165 20.436-22.002C145.979 355.4 228.264 296.053 309.73 235.593c20.904-15.506 39.307-34.362 59.304-51.141 37.171-31.188 67.891-37.084 111.557-23.04 15.2-14.088 28.907-28.702 44.574-40.814 18.051-13.956 39.819-19.588 62.625-19.602 215.859-0.103 431.703-0.278 647.563 0.073 60.27 0.088 110.49 41.998 122.982 100.615 0.512 2.4 1.419 4.71 2.136 7.066v424.287c-7.154 17.232-11.776 36.147-21.958 51.346-22.572 33.675-56.393 48.757-96.695 48.845-70.275 0.175-140.536 0.044-210.812 0.058h-14.277c-4.404 33.47-10.84 65.156-26.975 94.047-26.873 48.143-76.552 72.427-124.446 60.329-6.963-1.756-13.56-4.93-20.29-7.432-70.656 60.504-136.309 56.847-178.117-9.83-55.984 40.872-133.632 30.427-154.302-23.64-57.783 27.356-120.232 26.507-182.067 29.828-83.837 4.49-167.673 9.07-251.495 14.029-17.086 0.994-28.877-4.9-35.152-21.022v-10.283c6.217-14.468 17.218-20.422 32.914-21.241 104.828-5.442 209.613-11.498 314.427-17.16 59.962-3.232 114.673-19.426 158.515-62.975a3531.08 3531.08 0 0 0 51.448-52.166c22.733-23.552 46.241-45.7 79.624-53.423 5.763-1.332 11.22-4.14 16.735-6.48 43.417-18.462 86.338-38.006 122.543-69.062 21.329-18.286 37.157-40.55 39.834-69.56 2.853-30.763-14.512-70.202-57.885-59.01-29.14 7.518-57.915 17.904-85.358 30.295-87.728 39.614-174.71 80.867-262.086 121.256-16.515 7.636-31.729 2.75-38.414-11.205-6.451-13.459 0.234-28.292 16.647-36.484 6.89-3.438 13.795-7.007 21.036-9.523 9.011-3.116 11.732-8.397 11.703-18.081-0.366-101.128-0.293-202.27 0.146-303.397 0.03-7.972-3.364-10.21-9.596-12.23-21.84-7.036-38.37 3.526-53.79 16.473-19.353 16.252-37.083 34.581-57.314 49.59-83.939 62.26-168.507 123.656-252.943 185.227-21.343 15.58-36.586 11.47-48.186-12.273v-10.284z m474.624 74.093c2.925-0.951 4.564-1.302 6.041-1.99C580.39 483.68 636.343 457.89 691.99 431.47c34.48-16.37 69.032-31.92 107.476-36.85 44.076-5.66 80.501 12.932 100.806 52.575 23.069 45.056 13.824 103.22-21.665 145.028-29.272 34.48-66.882 56.92-106.19 77.327-5.06 2.618-10.064 5.34-18.241 9.684 7.036 0.497 10.299 0.921 13.546 0.921 156.848 0.03 313.68 0.059 470.528-0.073 7.65 0 15.536-0.439 22.88-2.326 28.934-7.402 46.138-30.734 46.284-64.439 0.395-88.707 0.146-177.415 0.073-266.108 0-2.794-0.892-5.603-1.375-8.397H518.51v172.88z m789.752-279.816c-1.345-9.815-1.448-18.856-3.95-27.165-9.508-31.583-37.917-50.527-75.015-50.527-212.055-0.044-424.111-0.03-636.167-0.014-3.847 0-7.724 0.029-11.557 0.336-34.713 2.765-66.574 41.97-62.23 77.37h788.92z m-491.3 502.507h-95.803c-1.96 15.55-4.286 29.93-5.485 44.412-1.58 19.09-4.287 38.458-2.531 57.33 0.892 9.537 8.397 21.664 16.574 26.74 26.653 16.56 73.187-1.433 84.714-30.88 0.6-1.522 0.57-3.336 0.614-5.018 0.659-30.647 1.273-61.28 1.917-92.584z m54.36-0.63c-1.624 27.97-4.257 54.726-4.374 81.482-0.073 18.944 9.83 25.629 28.76 22.82 16.032-2.384 28.76-10.869 38.707-23.2 18.929-23.45 25.307-51.332 28.394-81.101h-91.487z m-203.498 0.937c-13.795-3.98-22.28 0.556-30.852 9.494-20.992 21.899-43.154 42.671-64.775 63.97-5.164 5.077-13.21 8.075-9.992 18.55 3.277 10.65 11.03 13.165 20.246 14.657 27.312 4.418 48.23-7.46 66.034-26.434 4.798-5.105 10.547-11.176 11.659-17.554 3.584-20.553 5.222-41.457 7.68-62.683z" p-id="43382"></path></svg>