<?xml version="1.0" encoding="utf-8"?>
<!-- Generator: Adobe Illustrator 17.0.0, SVG Export Plug-In . SVG Version: 6.00 Build 0)  -->
<!DOCTYPE svg PUBLIC "-//W3C//DTD SVG 1.1//EN" "http://www.w3.org/Graphics/SVG/1.1/DTD/svg11.dtd">
<svg version="1.1" id="图层_1" xmlns="http://www.w3.org/2000/svg" xmlns:xlink="http://www.w3.org/1999/xlink" x="0px" y="0px"
	 width="200.391px" height="200px" viewBox="0 0 200.391 200" enable-background="new 0 0 200.391 200" xml:space="preserve">
<path d="M76.742,118.81c-24.219,0-43.853-19.634-43.853-43.853s19.634-43.853,43.853-43.853c24.219,0,43.853,19.634,43.853,43.853
	S100.962,118.81,76.742,118.81L76.742,118.81z M76.742,43.634c-17.299,0-31.323,14.024-31.323,31.323s14.024,31.323,31.323,31.323
	s31.323-14.024,31.323-31.323l0,0C108.066,57.657,94.042,43.634,76.742,43.634C76.742,43.634,76.742,43.634,76.742,43.634z"/>
<path d="M139.389,168.927H126.86c0-27.679-22.438-50.117-50.117-50.117s-50.117,22.438-50.117,50.117H14.096
	c0-34.599,28.048-62.647,62.647-62.647S139.389,134.328,139.389,168.927L139.389,168.927z M129.992,112.545v-12.529
	c15.569-0.049,28.151-12.71,28.102-28.28c-0.049-15.569-12.71-28.151-28.28-28.102c-2.447,0.008-4.883,0.334-7.246,0.971
	l-3.289-12.091c21.711-5.866,44.066,6.979,49.932,28.69s-6.979,44.066-28.69,49.932
	C137.088,112.063,133.548,112.537,129.992,112.545L129.992,112.545z"/>
<path d="M186.374,156.398h-12.529c0-24.219-19.634-43.853-43.853-43.853c0,0,0,0,0,0v-12.529
	C161.131,100.016,186.374,125.259,186.374,156.398L186.374,156.398z"/>
</svg>
