<?xml version="1.0" encoding="utf-8"?>
<!-- Generator: Adobe Illustrator 17.0.0, SVG Export Plug-In . SVG Version: 6.00 Build 0)  -->
<!DOCTYPE svg PUBLIC "-//W3C//DTD SVG 1.1//EN" "http://www.w3.org/Graphics/SVG/1.1/DTD/svg11.dtd">
<svg version="1.1" id="图层_1" xmlns="http://www.w3.org/2000/svg" xmlns:xlink="http://www.w3.org/1999/xlink" x="0px" y="0px"
	 width="200px" height="200px" viewBox="0 0 200 200" enable-background="new 0 0 200 200" xml:space="preserve">
<path d="M19.606,89.514c3.861,0,6.991,3.13,6.991,6.991V100c0,40.462,34.024,73.403,76.15,73.403c19.246,0,37.331-6.9,51.221-19.085
	l1.79-1.615l2.552-2.391c2.821-2.634,7.242-2.484,9.878,0.336l4.775,5.103c2.639,2.818,2.494,7.242-0.324,9.881
	c-0.001,0.001-0.003,0.003-0.004,0.004l-2.559,2.384c-17.973,16.806-41.896,26.355-67.321,26.355
	c-30.829,0-58.352-13.974-76.157-35.793v7.83c0,3.861-3.13,6.991-6.991,6.991h-6.991c-3.861,0-6.991-3.13-6.991-6.991V96.505
	c0-3.861,3.13-6.991,6.991-6.991L19.606,89.514L19.606,89.514z M125.146,54.812l5.306,4.544c2.93,2.514,3.268,6.926,0.755,9.857
	l-8.417,9.815h8.669c3.861,0,6.991,3.13,6.991,6.991v6.991c0,3.861-3.13,6.991-6.991,6.991h-20.972v6.991h20.972
	c3.861,0,6.991,3.13,6.991,6.991v6.991c0,3.861-3.13,6.991-6.991,6.991h-20.972v13.981c0,3.861-3.13,6.991-6.991,6.991h-6.991
	c-3.861,0-6.991-3.13-6.991-6.991v-13.981H68.542c-3.861,0-6.991-3.13-6.991-6.991v-6.991c0-3.861,3.13-6.991,6.991-6.991h20.972
	V100H68.542c-3.861,0-6.991-3.13-6.991-6.991v-6.991c0-3.861,3.13-6.991,6.991-6.991h8.662l-8.41-9.808
	c-2.513-2.93-2.175-7.343,0.755-9.857l5.313-4.551c2.93-2.513,7.343-2.175,9.857,0.755L100,73.4l15.282-17.826
	c2.509-2.934,6.922-3.279,9.856-0.769c0,0,0,0,0.001,0L125.146,54.812z M98.511,5.625c30.291,0,57.324,13.842,74.892,35.457v-7.494
	c0-3.861,3.13-6.991,6.991-6.991h6.991c3.861,0,6.991,3.13,6.991,6.991v69.907c0,3.861-3.13,6.991-6.991,6.991h-6.991
	c-3.861,0-6.991-3.13-6.991-6.991V100c0-40.497-33.486-73.403-74.885-73.403c-19.854,0-38.442,7.592-52.312,20.874l-1.643,1.622
	l-2.447,2.496c-2.705,2.755-7.131,2.795-9.886,0.09c-0.002-0.002-0.004-0.004-0.006-0.006L27.24,46.78
	c-2.755-2.705-2.795-7.131-0.09-9.886c0.002-0.002,0.004-0.004,0.006-0.006l2.447-2.496C47.772,15.927,72.613,5.558,98.518,5.625
	H98.511z"/>
</svg>
