<?xml version="1.0" encoding="utf-8"?>
<!-- Generator: Adobe Illustrator 17.0.0, SVG Export Plug-In . SVG Version: 6.00 Build 0)  -->
<!DOCTYPE svg PUBLIC "-//W3C//DTD SVG 1.1//EN" "http://www.w3.org/Graphics/SVG/1.1/DTD/svg11.dtd">
<svg version="1.1" id="图层_1" xmlns="http://www.w3.org/2000/svg" xmlns:xlink="http://www.w3.org/1999/xlink" x="0px" y="0px"
	 width="200px" height="200px" viewBox="0 0 200 200" enable-background="new 0 0 200 200" xml:space="preserve">
<path d="M118.027,199.941H28.184c-15.352,0-27.871-12.637-27.871-28.184V28.34c0-15.547,12.5-28.184,27.871-28.184h115.117
	c15.371,0,27.871,12.637,27.871,28.184V100c0,4.531-3.672,8.203-8.203,8.203s-8.203-3.672-8.203-8.203V28.34
	c0-6.504-5.156-11.777-11.465-11.777H28.203c-6.328,0-11.465,5.293-11.465,11.777v143.418c0,6.504,5.156,11.777,11.465,11.777
	h89.844c4.531,0,8.203,3.672,8.203,8.203S122.559,199.941,118.027,199.941L118.027,199.941z"/>
<path d="M124.043,40.059H47.07c-4.59,0-8.34,3.75-8.34,8.34s3.75,8.34,8.34,8.34h76.973c4.59,0,8.34-3.75,8.34-8.34
	S128.633,40.059,124.043,40.059z M124.043,78.867H47.07c-4.59,0-8.34,3.75-8.34,8.34s3.75,8.34,8.34,8.34h76.973
	c4.59,0,8.34-3.75,8.34-8.34S128.633,78.867,124.043,78.867z M91.816,117.656H47.07c-4.59,0-8.34,3.75-8.34,8.34
	c0,4.59,3.75,8.34,8.34,8.34h44.727c4.59,0,8.34-3.75,8.34-8.34C100.137,121.406,96.387,117.656,91.816,117.656z M190.352,144.766
	h-54.707c-4.59,0-8.34,3.75-8.34,8.34s3.75,8.34,8.34,8.34h54.727c4.59,0,8.34-3.75,8.34-8.34S194.941,144.766,190.352,144.766
	L190.352,144.766z"/>
<path d="M162.988,117.656c-4.59,0-8.34,3.75-8.34,8.34v54.199c0,4.59,3.75,8.34,8.34,8.34s8.34-3.75,8.34-8.34v-54.199
	C171.328,121.406,167.578,117.656,162.988,117.656L162.988,117.656z"/>
</svg>
