<?xml version="1.0" encoding="utf-8"?>
<!-- Generator: Adobe Illustrator 17.0.0, SVG Export Plug-In . SVG Version: 6.00 Build 0)  -->
<!DOCTYPE svg PUBLIC "-//W3C//DTD SVG 1.1//EN" "http://www.w3.org/Graphics/SVG/1.1/DTD/svg11.dtd">
<svg version="1.1" id="图层_1" xmlns="http://www.w3.org/2000/svg" xmlns:xlink="http://www.w3.org/1999/xlink" x="0px" y="0px"
	 width="200px" height="200px" viewBox="0 0 200 200" enable-background="new 0 0 200 200" xml:space="preserve">
<path d="M54.545,154.545h100c5.021,0,9.091,4.07,9.091,9.091c0,5.021-4.07,9.091-9.091,9.091l0,0h-100
	c-5.021,0-9.091-4.07-9.091-9.091C45.455,158.616,49.525,154.545,54.545,154.545z M61.155,33.845v93.427H37.836V77.182
	c0-7.227-0.173-11.582-0.518-13.036c-0.373-1.495-1.432-2.726-2.855-3.318C32.9,60.073,29.427,59.7,24.045,59.7h-2.309V48.791
	c11.273-2.418,19.836-7.4,25.682-14.945h13.727H61.155z M120.473,111.345v15.927h-51.3v-13.327
	C84.364,89.091,93.4,73.709,96.264,67.809c2.864-5.909,4.3-10.518,4.3-13.818c0-2.545-0.436-4.436-1.3-5.691
	c-0.864-1.245-2.182-1.873-3.955-1.873c-1.596-0.087-3.112,0.709-3.945,2.073c-0.873,1.391-1.3,4.136-1.3,8.255v8.891H69.173v-3.409
	c0-5.227,0.273-9.364,0.809-12.373c0.536-3.027,1.864-6,3.982-8.918c2.109-2.927,4.864-5.136,8.245-6.636
	c3.391-1.5,7.455-2.255,12.182-2.255c9.273,0,16.273,2.3,21.036,6.9c4.745,4.6,7.118,10.418,7.118,17.455c0,5.345-1.336,11-4,16.964
	c-2.682,5.964-10.555,18.618-23.636,37.973H120.473L120.473,111.345z M173.327,74.355c3.545,1.191,6.182,3.145,7.909,5.855
	c1.727,2.718,2.6,9.073,2.6,19.073c0,7.427-0.845,13.182-2.545,17.291c-1.691,4.091-4.609,7.209-8.764,9.345
	c-4.155,2.136-9.491,3.2-15.991,3.2c-7.382,0-13.182-1.236-17.4-3.727c-4.209-2.473-6.982-5.518-8.309-9.109
	c-1.327-3.6-1.991-9.836-1.991-18.727v-7.391h23.318v15.182c0,4.036,0.236,6.609,0.727,7.7c0.473,1.091,1.545,1.645,3.191,1.645
	c1.818,0,3-0.691,3.582-2.073c0.573-1.391,0.864-5,0.864-10.855v-6.455c0-3.582-0.4-6.2-1.209-7.855
	c-0.682-1.543-1.982-2.728-3.582-3.264c-1.573-0.518-4.636-0.818-9.173-0.891V69.736c5.545,0,8.964-0.209,10.273-0.636
	c1.32-0.433,2.364-1.454,2.827-2.764c0.573-1.427,0.864-3.655,0.864-6.691v-5.2c0-3.273-0.336-5.418-1-6.455
	c-0.682-1.045-1.727-1.564-3.155-1.564c-1.618,0-2.727,0.545-3.318,1.636c-0.591,1.1-0.891,3.445-0.891,7.018v7.673h-23.318v-7.964
	c0-8.918,2.045-14.955,6.118-18.091c4.082-3.136,10.564-4.7,19.455-4.7c11.109,0,18.655,2.182,22.618,6.518
	c3.964,4.345,5.936,10.391,5.936,18.118c0,5.236-0.709,9.018-2.127,11.345C179.409,70.309,176.909,72.436,173.327,74.355z"/>
</svg>
