<?xml version="1.0" standalone="no"?><!DOCTYPE svg PUBLIC "-//W3C//DTD SVG 1.1//EN" "http://www.w3.org/Graphics/SVG/1.1/DTD/svg11.dtd"><svg t="1704789248737" class="icon" viewBox="0 0 1024 1024" version="1.1" xmlns="http://www.w3.org/2000/svg" p-id="4248" xmlns:xlink="http://www.w3.org/1999/xlink" width="200" height="200"><path d="M500.8 579.2H366.4c-18.6 0-33.6 15-33.6 33.6s15 33.6 33.6 33.6h134.4c18.6 0 33.6-15 33.6-33.6s-15-33.6-33.6-33.6zM568 377.6H321.6c-18.6 0-33.6 15-33.6 33.6s15 33.6 33.6 33.6H568c18.6 0 33.6-15 33.6-33.6s-15-33.6-33.6-33.6z m179.2 0h-44.8c-18.6 0-33.6 15-33.6 33.6s15 33.6 33.6 33.6h44.8c18.6 0 33.6-15 33.6-33.6s-15-33.6-33.6-33.6zM512 64C264.6 64 64 264.6 64 512c0 85.7 24.1 165.8 65.8 233.9 19.3 31.4-49.3 145.8-23.2 171.4 29.4 28.9 154.4-31.8 190.9-11.9C361.2 940.2 434.3 960 512 960c247.4 0 448-200.6 448-448S759.4 64 512 64z m0 832c-78.8 0-152-23.7-213-64.4-20.4-13.6-111 38.9-128.4 21.8-12.6-12.4 47.2-93.8 36.5-107.8C157.5 680.8 128 599.8 128 512c0-212.1 171.9-384 384-384s384 171.9 384 384-171.9 384-384 384z m168-316.8h-44.8c-18.6 0-33.6 15-33.6 33.6s15 33.6 33.6 33.6H680c18.6 0 33.6-15 33.6-33.6s-15-33.6-33.6-33.6z" p-id="4249"></path></svg>