<?xml version="1.0" encoding="utf-8"?>
<!-- Generator: Adobe Illustrator 17.0.0, SVG Export Plug-In . SVG Version: 6.00 Build 0)  -->
<!DOCTYPE svg PUBLIC "-//W3C//DTD SVG 1.1//EN" "http://www.w3.org/Graphics/SVG/1.1/DTD/svg11.dtd">
<svg version="1.1" id="图层_1" xmlns="http://www.w3.org/2000/svg" xmlns:xlink="http://www.w3.org/1999/xlink" x="0px" y="0px"
	 width="200px" height="200px" viewBox="0 0 200 200" enable-background="new 0 0 200 200" xml:space="preserve">
<path fill-opacity="0.65" d="M118.139,1l59.485,59.16v126.762c-0.023,6.683-5.452,12.086-12.135,12.078H27.709
	c-6.677,0-12.097-5.401-12.12-12.078V13.078C15.612,6.401,21.032,1,27.709,1H118.139z M113.358,13.106H27.681v173.83h137.751
	l-0.014-0.028V65.774h-37.365c-7.814-0.008-14.159-6.315-14.214-14.129V13.587l-0.481-0.467L113.358,13.106z M143.638,154.464h0.325
	c3.214,0.18,5.674,2.931,5.494,6.145s-2.931,5.674-6.145,5.495H50.465c-3.21,0.224-5.994-2.197-6.218-5.407
	c-0.224-3.21,2.197-5.994,5.407-6.218c0.27-0.019,0.541-0.019,0.811,0h93.498L143.638,154.464z M143.638,125.005h0.325
	c3.214,0.184,5.671,2.938,5.487,6.152c-0.184,3.214-2.938,5.671-6.152,5.487l0,0H50.451c-3.306,0.08-6.064-2.508-6.195-5.813
	l0.141-1.075c0.617-2.831,3.157-4.825,6.053-4.752h93.513L143.638,125.005z M69.12,65.562c14.403-1.648,27.415,8.691,29.063,23.094
	c0,0,0,0.001,0,0.001l-0.113,1.174c-0.669,3.148-3.763,5.158-6.91,4.489c-2.678-0.569-4.599-2.925-4.616-5.663l-0.453-1.655
	c-2.657-7.718-11.067-11.821-18.785-9.164c-4.878,1.679-8.527,5.779-9.628,10.819c0,3.21-2.602,5.813-5.813,5.813h0l0.042,0.028
	c-3.218,0.023-5.846-2.566-5.869-5.784c0-0.019,0-0.038,0-0.057l0.325-2.121c2.221-11.199,11.426-19.679,22.77-20.974L69.12,65.562z
	 M72.047,25.354c10.252-0.016,18.575,8.282,18.591,18.534c0.016,10.252-8.282,18.575-18.534,18.591
	c-10.248,0.023-18.574-8.265-18.598-18.513c0-0.014,0-0.028,0-0.042l0.127-1.909c0.964-9.464,8.929-16.665,18.442-16.674
	L72.047,25.354z M125.988,25.92v25.726c0.023,1.144,0.949,2.064,2.093,2.079h25.853L126.002,25.92H125.988z M72.09,35.509
	c-4.632,0-8.387,3.755-8.387,8.387c0,0.009,0,0.019,0,0.028l0.113,1.358c0.758,4.569,5.076,7.66,9.646,6.902s7.66-5.076,6.902-9.646
	c-0.67-4.042-4.163-7.008-8.26-7.015H72.09V35.509z"/>
<path fill-opacity="0.65" d="M118.139,2l59.485,59.16v126.762c-0.023,6.683-5.452,12.086-12.135,12.078H27.709
	c-6.677,0-12.097-5.401-12.12-12.078V14.078C15.612,7.401,21.032,2,27.709,2H118.139z M113.358,14.106H27.681v173.83h137.751
	l-0.014-0.028V66.774h-37.365c-7.814-0.008-14.159-6.315-14.214-14.129V14.587l-0.481-0.467L113.358,14.106z M143.638,155.464h0.325
	c3.214,0.18,5.674,2.931,5.494,6.145s-2.931,5.674-6.145,5.495H50.465c-3.21,0.224-5.994-2.197-6.218-5.407
	c-0.224-3.21,2.197-5.994,5.407-6.218c0.27-0.019,0.541-0.019,0.811,0h93.498L143.638,155.464z M143.638,126.005h0.325
	c3.214,0.184,5.671,2.938,5.487,6.152c-0.184,3.214-2.938,5.671-6.152,5.487l0,0H50.451c-3.306,0.08-6.064-2.508-6.195-5.813
	l0.141-1.075c0.617-2.831,3.157-4.825,6.053-4.752h93.513L143.638,126.005z M69.12,66.562c14.403-1.648,27.415,8.691,29.063,23.094
	c0,0,0,0.001,0,0.001l-0.113,1.174c-0.669,3.148-3.763,5.158-6.91,4.489c-2.678-0.569-4.599-2.925-4.616-5.663l-0.453-1.655
	c-2.657-7.718-11.067-11.821-18.785-9.164c-4.878,1.679-8.527,5.779-9.628,10.819c0,3.21-2.602,5.813-5.813,5.813h0l0.042,0.028
	c-3.218,0.023-5.846-2.566-5.869-5.784c0-0.019,0-0.038,0-0.057l0.325-2.121c2.221-11.199,11.426-19.679,22.77-20.974L69.12,66.562z
	 M72.047,26.354c10.252-0.016,18.575,8.282,18.591,18.534c0.016,10.252-8.282,18.575-18.534,18.591
	c-10.248,0.023-18.574-8.265-18.598-18.513c0-0.014,0-0.028,0-0.042l0.127-1.909c0.964-9.464,8.929-16.665,18.442-16.674
	L72.047,26.354z M125.988,26.92v25.726c0.023,1.144,0.949,2.064,2.093,2.079h25.853L126.002,26.92H125.988z M72.09,36.509
	c-4.632,0-8.387,3.755-8.387,8.387c0,0.009,0,0.019,0,0.028l0.113,1.358c0.758,4.569,5.076,7.66,9.646,6.902s7.66-5.076,6.902-9.646
	c-0.67-4.042-4.163-7.008-8.26-7.015H72.09V36.509z"/>
</svg>
