<?xml version="1.0" encoding="utf-8"?>
<!-- Generator: Adobe Illustrator 17.0.0, SVG Export Plug-In . SVG Version: 6.00 Build 0)  -->
<!DOCTYPE svg PUBLIC "-//W3C//DTD SVG 1.1//EN" "http://www.w3.org/Graphics/SVG/1.1/DTD/svg11.dtd">
<svg version="1.1" id="图层_1" xmlns="http://www.w3.org/2000/svg" xmlns:xlink="http://www.w3.org/1999/xlink" x="0px" y="0px"
	 width="200px" height="200px" viewBox="0 0 200 200" enable-background="new 0 0 200 200" xml:space="preserve">
<path fill="#38ADFF" d="M24.222,29.556h10.667v142.889H24.222V29.556z"/>
<path fill="#38ADFF" d="M26.889,93.556h34.222v10.889H26.889V93.556z M45.762,10.889H12.49c-2.685,0-4.934,2.399-4.934,5.084v33.272
	c0,3.105,2.589,5.422,5.694,5.422h33.272c2.685,0,5.034-1.977,5.034-4.662V16.732C51.556,13.628,48.867,10.889,45.762,10.889z
	 M144.211,77.556H74.476c-2.685,0-4.921,2.58-4.921,5.265v33.272c0,3.105,2.575,5.463,5.68,5.463h69.735
	c2.685,0,5.03-2.018,5.03-4.703V83.58C150,80.476,147.316,77.556,144.211,77.556z M26.889,161.778h34.222v10.667H26.889V161.778z
	 M186.75,145.778H74.476c-2.685,0-4.921,2.421-4.921,5.106v33.272c0,3.105,2.575,5.4,5.68,5.4H187.51
	c2.685,0,4.934-1.955,4.934-4.64v-33.272C192.444,148.539,189.856,145.778,186.75,145.778z"/>
</svg>
